<?xml version="1.0" encoding="utf-8"?>
<!-- Generator: Adobe Illustrator 26.2.1, SVG Export Plug-In . SVG Version: 6.00 Build 0)  -->
<svg version="1.1" id="Layer_1" xmlns="http://www.w3.org/2000/svg" xmlns:xlink="http://www.w3.org/1999/xlink" x="0px" y="0px"
	 viewBox="0 0 320 320" style="enable-background:new 0 0 320 320;" xml:space="preserve">
<style type="text/css">
	.st0{display:none;}
	.st1{display:inline;}
</style>
<g class="st0">
	<path class="st1" d="M62.8,87.7l-8.3,27.7l9.1,2.7L73.5,89c-3.5-4-8.7-7.3-14.1-9.8c-19.5,3.2-32.1,21.4-37.7,38.2
		c-0.1,0.4-0.2,0.7-0.2,1.2l-0.1,0.1c6.9,10.6,16.4,19.1,27.9,26.2c-11.2-1.6-22.6-4.4-33.7-7.7l-3.1,10.8c13.8,4.5,27,7,39.9,6.8
		l4.8-14l-23.3-22.2C38.8,105.5,47.6,92.1,62.8,87.7z"/>
	<path class="st1" d="M75.2,143.3L99.8,115l3.3,2.7c-6.2,11.8-11,23.9-12,32.2l10.6,4.8l13.6-43.3l-11.2-9.1
		c-6.5,5.1-15.3,15.3-23,26l18.2-45.3l-10-4L61.3,150l9.2,4.8L75.2,143.3z"/>
	<path class="st1" d="M132.9,154.8c15.5-2.9,27.9-21.4,27.1-44.8l-17.4-7.6c-15.6,2.9-28.2,22.2-26.9,46.4L132.9,154.8z M142,110.9
		l7.3,3.4c-1.4,12.6-7.3,25.6-16.3,32.5l-7-2.6C126.5,132.5,132.7,118.6,142,110.9z"/>
	<path class="st1" d="M194.4,138.2l-22.3,7.3c0.7-15.7,9.4-29.6,20.6-35.4l0.1-0.1l-4.6,17.8l7.9,1.8l6.9-20.7l-13.5-6.6
		c-16.9,3.3-30,22.4-28.7,46.8l10.5,5.7l25.3-9.1L194.4,138.2z"/>
	<path class="st1" d="M223.6,134.1l-3.9,7l18.5,13.8l5.1-8.4l-10-7.6c12.4-5.2,18.3-19.3,18.6-29.3l-11.8-7.2
		c-6.2,5.1-15.1,15.9-22.9,27.8l18.9-47l-10-4L198.3,150l9.2,4.8l4-10l25-30.4l4.2,2.5C238.6,126.2,231.5,133.6,223.6,134.1z"/>
	<path class="st1" d="M106.6,172.1c-2.8-5.1-8.4-8.1-15.6-8.1c-13.6,0-22.7,10.4-22.7,24.4c0,13.8,8.9,24,22.4,24
		c6.9,0,12.8-2.8,15.8-7.3v7.9c0,7.9-5.2,13.1-13.3,13.1c-7.3,0-12-3.7-12.8-9.9H68.6c1.5,12.8,10.8,20.6,24.6,20.6
		c15.5,0,25-10,25-25.9v-45.4h-10.9L106.6,172.1z M93.1,202.1c-7.7,0-12.9-6-12.9-14c0-7.8,5-13.7,12.9-13.7
		c8.2,0,13.2,5.6,13.2,13.7C106.2,196.4,101.2,202.1,93.1,202.1z"/>
	<path class="st1" d="M157.9,190.6c0,9.1-3.6,13.4-11,13.4c-6.6,0-10.2-3.7-10.2-12.8v-25.7H125v29.9c0,11.7,6.5,19.1,17.5,19.1
		c6.4,0,12.6-3.1,15.5-7.6l0.9,6.4h10.9v-47.8h-11.8V190.6z"/>
	<path class="st1" d="M197.7,164.1c-13,0-21.5,6.8-21.5,17.1h10.1c0-5,3.9-7.9,10.8-7.9c6,0,9.9,2.6,9.9,9.1v1.1l-14.3,1.1
		c-11.3,0.9-17.7,6.4-17.7,15.2c0,9,6.2,14.9,16.3,14.9c7.4,0,13.9-3.4,16-8.3l0.9,7.1h10.3v-29
		C218.5,171.1,210.5,164.1,197.7,164.1z M207.1,194c0,7.3-4.6,11.7-11.9,11.7c-5.3,0-8.2-2.1-8.2-6.5c0-3.9,2.8-6.3,10.2-7l10-0.8
		V194z"/>
	<path class="st1" d="M255.2,165.4c-1.9-0.5-3.6-0.7-5.2-0.7c-6.4,0-10.9,3.2-13,7.9l-0.7-7h-11.1v47.7H237v-23.2
		c0-9.3,5.3-13.8,13.8-13.8h4.4V165.4z"/>
	<path class="st1" d="M292.6,141.4v30.3c-3-4.7-8.9-7.5-15.6-7.5c-14.4,0-23.1,10.6-23.1,25.5c0,14.8,8.6,24.9,22.4,24.9
		c7.3,0,13.4-3.2,16.3-8.7l0.8,7.4h10.8v-71.9H292.6z M279,203.7c-8.2,0-13.2-6-13.2-14.5s5-14.6,13.2-14.6c8.2,0,13.5,6,13.5,14.6
		C292.5,197.9,287.2,203.7,279,203.7z"/>
</g>
<path d="M63,163.3c-1.5,5.2-3.1,10.3-4.7,15.5c-14.1,3.6-28.7,4.9-43.7,4.6c1.1-4.2,2.2-8.3,3.4-12.4c12,0,24.4-0.3,36.6-1.6
	c-12.8-4.3-23.1-10.5-30.6-19.8c0,0,0.1-0.1,0.1-0.1c0-0.4,0.1-0.8,0.2-1.3c5.8-19.4,18.7-41.9,38.5-49c5.6,1.5,11.1,3.9,14.9,7.4
	c-2.9,10.5-5.9,21.1-9,31.8c-3.3-0.3-6.5-0.5-9.8-0.8c2.6-10.2,5.1-20.3,7.6-30.3c-15.5,7.5-24.5,23.8-29.4,38.9
	C45.8,151.9,54.3,157.6,63,163.3z M88,145.3c5.5-16.4,10.8-32.6,15.9-48.6c-3.5-0.9-7-1.7-10.4-2.6c-8.1,25.3-16.6,51-25.6,77.4
	c3.4,0.9,6.9,1.8,10.3,2.7c1.5-4.2,2.9-8.4,4.3-12.6c8.3-11.3,16.4-22.4,24.3-33.1c1.2,0.7,2.4,1.5,3.6,2.2
	c-5.6,12.7-9.9,25.8-10.3,34.3c4,0.9,8,1.8,12,2.8c3.7-15.1,7.2-30.1,10.7-44.9c-4.2-2.5-8.4-5-12.5-7.5
	C104,121.3,95.5,132.9,88,145.3z M125.1,159.9c-2.1-20.6,11-46.5,27.5-49.3c4,2.8,8,5.6,12.1,8.4c0.8-2.9,1.6-5.7,2.4-8.6
	c3.3,0.9,6.6,1.7,10,2.6c-2.9,15.6-6.1,31.4-9.4,47.3c-3.9-1.2-7.7-2.3-11.5-3.4c1.8-8.2,3.5-16.3,5.2-24.4
	c-5.9,10-11.9,20.1-18.2,30.5C137.2,162,131.1,160.9,125.1,159.9z M136.6,152.8c1.4,0.4,2.8,0.8,4.3,1.2
	c6.8-10.2,13.3-20.2,19.7-29.9c-2-1.3-4-2.5-6-3.8C145.3,126.4,138.7,138.5,136.6,152.8z M213.5,142.5c12.1-5.2,15.3-18,13.6-27.2
	c-4.5-2.3-8.9-4.6-13.3-6.9c-5.3,4.7-12.6,14.8-18.8,26.5c4-15,7.8-29.9,11.3-44.5c-3.5-1.3-7.1-2.6-10.6-3.8
	c-5.4,22.2-11.3,45-17.8,68.2c3.6,1.3,7.1,2.6,10.7,3.8c0.9-3.2,1.8-6.5,2.7-9.7c7.2-10.1,14.2-19.9,20.9-29.4
	c1.6,0.8,3.2,1.6,4.8,2.3c-0.4,8.7-6.5,15.6-14.7,16.4c-1,2.2-1.9,4.5-2.9,6.8c7.3,4,14.7,8.1,22.2,12.2c1.3-2.6,2.6-5.3,3.8-7.9
	C221.5,147.1,217.5,144.8,213.5,142.5z M234.5,151.8c-6.4-22.5,3.3-40.1,19.3-41.9c5,2.3,10,4.6,15.1,7c-0.7,6.1-1.4,12.3-2.2,18.5
	c-7.1,1.1-14.3,2.3-21.5,3.6c-0.4,2.9-0.2,6.1,0.5,9.5c7.3-2.1,14.5-4.1,21.6-5.9c1.4,2.3,2.8,4.6,4.2,6.9
	c-8.1,2.3-16.2,4.8-24.6,7.4C242.7,155.3,238.6,153.5,234.5,151.8z M246,133.6c4.1-0.8,8.1-1.5,12.1-2.2c0.3-4.8,0.6-9.6,0.9-14.4
	C252.7,119.8,248,125.9,246,133.6z M110.6,179.1c3.5-0.2,6.9-0.5,10.4-0.7c-2.2,11.6-4.3,23.3-6.5,34.9
	c-2.2,12.5-14.1,18.4-31.2,15.5c-15.2-2.6-23.6-9-21.9-16.7c4.2,0.4,8.3,0.9,12.5,1.3c-0.6,4,3.7,7.1,11.6,8.1
	c8.8,1.2,15.3-1.8,16.6-7.6c0.4-1.9,0.9-3.9,1.3-5.8c-3.8,3.1-10.5,4.5-17.7,3.8c-14.3-1.5-21.1-8.4-17.6-16.5
	c3.6-8.2,14.8-15.1,27.6-16.2c6.8-0.5,11.5,1.2,13.4,4.9C109.4,182.3,110,180.7,110.6,179.1z M95.4,186c-7.6,0.3-13.7,4.3-15.5,9.2
	c-1.8,5.1,2.1,9.2,10.1,9.8c8.4,0.5,14.5-3.3,15.9-9.4C107.1,189.6,103.3,185.7,95.4,186z M157.3,198.5c-0.5,8.3-4.5,11.9-12.2,11.4
	c-6.8-0.5-10.1-3.8-9.1-11.3c0.9-7.1,1.8-14.3,2.7-21.4c-3.7,0.3-7.5,0.5-11.2,0.8c-1.3,7.9-2.6,15.8-3.8,23.7
	c-1.6,9.2,4.3,15.7,16,17c6.7,0.7,13.5-1.4,16.8-5.3c0.2,1.9,0.4,3.9,0.5,5.9c3.8,0.4,7.7,0.7,11.5,1.1c0.6-15,1.1-30.1,1.7-45.1
	c-3.7,0.3-7.5,0.5-11.2,0.8C158.3,183.4,157.8,190.9,157.3,198.5z M217.6,192.8c0.7,10.7,1.3,21.4,2,32.2c-3.6-0.3-7.2-0.7-10.9-1
	c-0.4-2.6-0.8-5.1-1.2-7.6c-1.9,5.2-8.6,8.1-16.4,7.3c-10.7-1.1-17.1-7.4-16.9-16c0.2-8.4,6.7-13.6,17.9-14.6
	c4.7-0.4,9.4-0.7,14.1-1.1c0-0.4,0-0.8,0-1.1c-0.3-7-4.1-9.6-9.9-9.4c-6.7,0.3-10.5,3.3-10.5,8.3c-3.3,0-6.6,0.1-9.9,0.1
	c0.3-9.9,8.5-17,20.7-18C208.6,170.8,216.6,178,217.6,192.8z M206.7,203.1c0-0.9-0.1-1.8-0.1-2.7c-3.3,0.2-6.7,0.4-10,0.6
	c-7.4,0.5-10.2,2.8-10.2,6.7c0,4.3,3,6.7,8.5,7.1C202.4,215.4,207.1,211.1,206.7,203.1z M246.2,168.9c-6,0.4-10,4.5-11.5,10.2
	c-0.5-2.7-0.9-5.4-1.4-8.1c-3.5,0.2-7,0.5-10.6,0.7c1.3,18,2.6,36,3.9,54c4.1,0.4,8.3,0.8,12.4,1.2c-0.8-9.1-1.6-18.1-2.5-27.2
	c-1-10.8,3.7-16.3,12-16.6c1.4,0,2.8-0.1,4.2-0.1c-0.5-4.5-1.1-9-1.6-13.5C249.3,168.9,247.7,168.8,246.2,168.9z M309.8,233.4
	c-3.8-0.4-7.6-0.7-11.4-1.1c-0.8-3.4-1.7-6.8-2.5-10.2c-1.8,7.3-7.6,10.9-15.3,10.2c-14.7-1.6-25.2-14.9-27.2-33
	c-2-18.1,4.7-31.8,18.3-33c6.3-0.5,12.5,2.9,16.4,9.2c-2.2-13.7-4.5-27.4-6.7-41.2c3.5-0.6,7-1.1,10.5-1.7
	C297.9,166.3,303.8,199.8,309.8,233.4z M292,199.5c-2-11.8-8.4-19.7-16.4-19.4c-7.9,0.3-11.8,8.2-10.4,19
	c1.4,10.7,7.6,18.7,16.1,19.3C289.8,218.9,294,211.3,292,199.5z"/>
</svg>
