<?xml version="1.0" encoding="UTF-8"?><svg id="a" xmlns="http://www.w3.org/2000/svg" viewBox="0 0 300 300"><defs><style>.b{fill:blue;}.c{fill:#fff;}</style></defs><rect class="b" width="300" height="300"/><path class="c" d="M73.33,89.57c2.53,8.4,1.46,17.1,1.07,25.71-.43,9.34,.25,18.68,0,28.02-.19,7.08,10.81,7.08,11,0,.26-9.9-.44-19.78,.08-29.68,.48-9.07,1.11-18.15-1.55-26.97-2.04-6.76-12.66-3.88-10.61,2.92h0Z"/><path class="c" d="M190.49,78.6c.45,20.24-3.14,40.18-5.07,60.26-.68,7.04,10.33,7,11,0,1.94-20.08,5.52-40.02,5.07-60.26-.16-7.07-11.16-7.09-11,0h0Z"/><path class="c" d="M57.91,173.75c1.35,12.1,12.59,20.91,21.59,27.89,12.77,9.91,27.12,17.6,42.82,21.7,30.26,7.91,64.22,3.03,88.87-16.81,12.62-10.15,22.31-23.56,30.15-37.62,3.45-6.19-6.05-11.74-9.5-5.55-12.22,21.91-29.49,41.64-54.37,48.81-28.2,8.13-58.62,2.7-83.02-13.25-5.33-3.49-10.44-7.4-15.16-11.68-3.59-3.25-9.8-8.3-10.38-13.5-.78-6.96-11.79-7.04-11,0h0Z"/></svg>