<?xml version="1.0" encoding="UTF-8" standalone="no"?>
<!DOCTYPE svg PUBLIC "-//W3C//DTD SVG 1.1//EN" "http://www.w3.org/Graphics/SVG/1.1/DTD/svg11.dtd">
<svg width="100%" height="100%" viewBox="0 0 256 256" version="1.1" xmlns="http://www.w3.org/2000/svg" xmlns:xlink="http://www.w3.org/1999/xlink" xml:space="preserve" xmlns:serif="http://www.serif.com/" style="fill-rule:evenodd;clip-rule:evenodd;stroke-linecap:round;stroke-linejoin:round;stroke-miterlimit:1.5;">
    <g transform="matrix(1,0,0,1,-270,0)">
        <g id="Post-It" transform="matrix(1,0,0,1,-0.356581,0)">
            <rect x="270.357" y="0" width="256" height="256" style="fill:none;"/>
            <g transform="matrix(1,0,0,1,0.356581,0)">
                <rect x="284.58" y="7.256" width="234.801" height="239.584" style="fill:rgb(248,238,98);"/>
                <clipPath id="_clip1">
                    <rect x="284.58" y="7.256" width="234.801" height="239.584"/>
                </clipPath>
                <g clip-path="url(#_clip1)">
                    <g>
                        <g transform="matrix(1,0,0,1,0,10)">
                            <path d="M284.58,34.541L519.381,33.338" style="fill:none;stroke:rgb(227,0,87);stroke-opacity:0.54;stroke-width:4px;"/>
                        </g>
                        <g transform="matrix(1,0,0,1,0.157968,38.6524)">
                            <path d="M284.58,34.541L519.381,33.338" style="fill:none;stroke:rgb(227,0,87);stroke-opacity:0.54;stroke-width:4px;"/>
                        </g>
                        <g transform="matrix(1,0,0,1,-0.496471,75.128)">
                            <path d="M284.58,34.541L519.381,33.338" style="fill:none;stroke:rgb(227,0,87);stroke-opacity:0.54;stroke-width:4px;"/>
                        </g>
                        <g transform="matrix(1,0,0,1,-0.496471,106.416)">
                            <path d="M284.58,34.541L519.381,33.338" style="fill:none;stroke:rgb(227,0,87);stroke-opacity:0.54;stroke-width:4px;"/>
                        </g>
                        <g transform="matrix(1,0,0,1,-1.36655,141.251)">
                            <path d="M284.58,34.541L519.381,33.338" style="fill:none;stroke:rgb(227,0,87);stroke-opacity:0.54;stroke-width:4px;"/>
                        </g>
                        <g transform="matrix(1,0,0,1,-1.45682,175.656)">
                            <path d="M284.58,34.541L519.381,33.338" style="fill:none;stroke:rgb(227,0,87);stroke-opacity:0.54;stroke-width:4px;"/>
                        </g>
                        <g transform="matrix(1,0,0,1,-0.579217,206.811)">
                            <path d="M284.58,34.541L519.381,33.338" style="fill:none;stroke:rgb(227,0,87);stroke-opacity:0.54;stroke-width:4px;"/>
                        </g>
                    </g>
                    <g transform="matrix(1,0,0,1,35.4847,-5.30823)">
                        <g transform="matrix(22.0396,0,0,22.0396,293.572,71.9903)">
                            <path d="M0.407,-0.491C0.411,-0.602 0.417,-0.678 0.422,-0.721C0.428,-0.759 0.449,-0.778 0.486,-0.778C0.505,-0.778 0.521,-0.772 0.532,-0.76C0.544,-0.747 0.55,-0.732 0.55,-0.714C0.55,-0.667 0.546,-0.597 0.539,-0.503C0.531,-0.41 0.528,-0.34 0.528,-0.292C0.528,-0.177 0.532,-0.1 0.539,-0.061C0.54,-0.056 0.541,-0.051 0.541,-0.047C0.541,-0.029 0.534,-0.014 0.521,-0.003C0.508,0.009 0.493,0.015 0.476,0.015C0.451,0.015 0.434,0.004 0.422,-0.018C0.4,-0.004 0.377,0.006 0.353,0.012C0.329,0.019 0.305,0.022 0.279,0.022C0.206,0.022 0.146,-0.001 0.098,-0.047C0.049,-0.095 0.024,-0.155 0.024,-0.229C0.024,-0.317 0.049,-0.387 0.098,-0.441C0.148,-0.495 0.212,-0.522 0.292,-0.522C0.316,-0.522 0.338,-0.519 0.357,-0.514C0.377,-0.509 0.393,-0.501 0.407,-0.491ZM0.397,-0.337C0.387,-0.357 0.373,-0.373 0.355,-0.383C0.338,-0.393 0.318,-0.398 0.294,-0.398C0.246,-0.398 0.21,-0.384 0.186,-0.356C0.161,-0.328 0.149,-0.287 0.149,-0.231C0.149,-0.196 0.162,-0.166 0.188,-0.141C0.215,-0.116 0.245,-0.103 0.279,-0.103C0.304,-0.103 0.323,-0.106 0.336,-0.112C0.345,-0.116 0.36,-0.126 0.381,-0.143C0.387,-0.148 0.392,-0.153 0.397,-0.158C0.397,-0.174 0.397,-0.233 0.397,-0.337Z" style="fill:rgb(44,11,232);fill-rule:nonzero;"/>
                        </g>
                        <g transform="matrix(22.0396,0,0,22.0396,306.518,71.9903)">
                            <path d="M0.251,0.029C0.191,0.029 0.139,0.008 0.096,-0.033C0.048,-0.078 0.023,-0.139 0.021,-0.214C0.019,-0.286 0.038,-0.35 0.08,-0.407C0.13,-0.473 0.198,-0.506 0.287,-0.506C0.352,-0.506 0.403,-0.48 0.442,-0.428C0.476,-0.381 0.494,-0.323 0.494,-0.254C0.494,-0.178 0.473,-0.114 0.433,-0.061C0.388,-0.001 0.327,0.029 0.251,0.029ZM0.28,-0.377C0.24,-0.378 0.209,-0.36 0.186,-0.323C0.166,-0.292 0.156,-0.256 0.156,-0.214C0.156,-0.175 0.167,-0.145 0.189,-0.125C0.207,-0.108 0.228,-0.1 0.251,-0.1C0.279,-0.1 0.304,-0.109 0.325,-0.128C0.348,-0.151 0.361,-0.181 0.363,-0.22C0.367,-0.325 0.34,-0.377 0.28,-0.377Z" style="fill:rgb(44,11,232);fill-rule:nonzero;"/>
                        </g>
                        <g transform="matrix(22.0396,0,0,22.0396,318.108,71.9903)">
                            <path d="M0.435,0.035C0.395,0.035 0.372,0.015 0.368,-0.024C0.363,-0.058 0.359,-0.092 0.354,-0.125C0.349,-0.161 0.347,-0.195 0.347,-0.227C0.347,-0.235 0.347,-0.25 0.348,-0.27C0.35,-0.291 0.35,-0.305 0.35,-0.313C0.35,-0.316 0.35,-0.322 0.351,-0.331C0.352,-0.34 0.352,-0.348 0.352,-0.354C0.352,-0.381 0.345,-0.394 0.331,-0.394C0.301,-0.394 0.272,-0.377 0.243,-0.342C0.214,-0.307 0.192,-0.262 0.175,-0.208C0.175,-0.198 0.173,-0.183 0.171,-0.166C0.169,-0.151 0.168,-0.137 0.168,-0.123C0.168,-0.113 0.169,-0.1 0.171,-0.081C0.173,-0.063 0.174,-0.049 0.174,-0.04C0.174,-0.021 0.168,-0.006 0.155,0.006C0.142,0.018 0.126,0.024 0.106,0.024C0.087,0.024 0.071,0.018 0.058,0.006C0.045,-0.006 0.039,-0.021 0.039,-0.04C0.039,-0.049 0.038,-0.063 0.036,-0.081C0.034,-0.1 0.033,-0.113 0.033,-0.123C0.033,-0.154 0.035,-0.197 0.04,-0.253C0.045,-0.309 0.047,-0.352 0.047,-0.383C0.047,-0.393 0.046,-0.408 0.045,-0.427C0.044,-0.446 0.043,-0.461 0.043,-0.47C0.043,-0.488 0.05,-0.503 0.063,-0.515C0.076,-0.527 0.093,-0.533 0.112,-0.533C0.154,-0.533 0.177,-0.508 0.18,-0.457L0.181,-0.451C0.228,-0.499 0.278,-0.523 0.331,-0.523C0.393,-0.523 0.435,-0.497 0.458,-0.446C0.474,-0.411 0.482,-0.36 0.482,-0.291L0.482,-0.256C0.482,-0.241 0.481,-0.231 0.481,-0.225C0.481,-0.199 0.485,-0.167 0.492,-0.126C0.499,-0.086 0.502,-0.054 0.502,-0.029C0.502,-0.011 0.496,0.005 0.483,0.017C0.47,0.029 0.454,0.035 0.435,0.035Z" style="fill:rgb(44,11,232);fill-rule:nonzero;"/>
                        </g>
                        <g transform="matrix(22.0396,0,0,22.0396,329.644,71.9903)">
                            <path d="M0.278,-0.679L0.273,-0.509C0.273,-0.493 0.267,-0.48 0.255,-0.469C0.244,-0.458 0.229,-0.453 0.21,-0.453C0.193,-0.453 0.178,-0.458 0.166,-0.469C0.153,-0.48 0.147,-0.493 0.147,-0.509C0.147,-0.555 0.149,-0.621 0.153,-0.708C0.155,-0.73 0.162,-0.746 0.172,-0.757C0.183,-0.768 0.198,-0.773 0.218,-0.773C0.236,-0.773 0.251,-0.768 0.263,-0.757C0.275,-0.747 0.281,-0.733 0.281,-0.717C0.281,-0.713 0.28,-0.706 0.279,-0.698C0.278,-0.689 0.278,-0.683 0.278,-0.679Z" style="fill:rgb(44,11,232);fill-rule:nonzero;"/>
                        </g>
                        <g transform="matrix(22.0396,0,0,22.0396,339.2,71.9903)">
                            <path d="M0.395,-0.393L0.346,-0.395C0.333,-0.395 0.317,-0.393 0.3,-0.391C0.306,-0.259 0.309,-0.173 0.309,-0.133C0.309,-0.129 0.309,-0.121 0.309,-0.109C0.309,-0.098 0.31,-0.088 0.31,-0.081C0.31,-0.006 0.286,0.031 0.239,0.031C0.221,0.031 0.205,0.026 0.192,0.015C0.178,0.003 0.171,-0.012 0.171,-0.029C0.171,-0.041 0.171,-0.059 0.172,-0.082C0.173,-0.105 0.174,-0.123 0.174,-0.135C0.174,-0.174 0.171,-0.258 0.165,-0.388C0.145,-0.389 0.114,-0.391 0.073,-0.396C0.033,-0.4 0.012,-0.421 0.012,-0.459C0.012,-0.477 0.018,-0.493 0.031,-0.505C0.043,-0.518 0.059,-0.524 0.079,-0.524C0.091,-0.524 0.118,-0.522 0.162,-0.519C0.161,-0.529 0.16,-0.546 0.159,-0.57C0.158,-0.591 0.157,-0.607 0.157,-0.619C0.157,-0.637 0.164,-0.652 0.177,-0.664C0.191,-0.676 0.207,-0.682 0.226,-0.682C0.274,-0.682 0.298,-0.642 0.298,-0.561L0.297,-0.521C0.317,-0.523 0.333,-0.525 0.346,-0.525C0.384,-0.525 0.409,-0.522 0.423,-0.518C0.449,-0.508 0.462,-0.489 0.462,-0.458C0.462,-0.439 0.456,-0.424 0.443,-0.412C0.43,-0.399 0.414,-0.393 0.395,-0.393Z" style="fill:rgb(44,11,232);fill-rule:nonzero;"/>
                        </g>
                        <g transform="matrix(22.0396,0,0,22.0396,359.142,71.9903)">
                            <path d="M0.282,-0.501C0.325,-0.505 0.357,-0.507 0.375,-0.507C0.436,-0.507 0.467,-0.486 0.467,-0.445C0.467,-0.402 0.434,-0.381 0.37,-0.383C0.349,-0.384 0.318,-0.382 0.276,-0.379C0.275,-0.344 0.275,-0.3 0.275,-0.247C0.277,-0.17 0.277,-0.126 0.277,-0.116C0.277,-0.056 0.274,-0.009 0.266,0.026C0.259,0.061 0.237,0.078 0.202,0.078C0.183,0.078 0.168,0.072 0.154,0.061C0.141,0.049 0.134,0.034 0.134,0.016C0.134,0.012 0.134,0.008 0.135,0.004C0.143,-0.043 0.146,-0.086 0.146,-0.127L0.146,-0.372C0.141,-0.371 0.13,-0.37 0.114,-0.368C0.102,-0.366 0.092,-0.365 0.086,-0.365C0.066,-0.365 0.05,-0.371 0.037,-0.383C0.024,-0.394 0.017,-0.41 0.017,-0.429C0.017,-0.459 0.033,-0.479 0.065,-0.489C0.079,-0.493 0.108,-0.496 0.15,-0.497C0.151,-0.503 0.153,-0.521 0.157,-0.552C0.166,-0.625 0.186,-0.679 0.216,-0.714C0.254,-0.759 0.312,-0.781 0.39,-0.781C0.449,-0.781 0.479,-0.759 0.479,-0.717C0.479,-0.674 0.451,-0.653 0.396,-0.653C0.357,-0.653 0.328,-0.639 0.31,-0.612C0.297,-0.591 0.288,-0.559 0.283,-0.516L0.282,-0.501Z" style="fill:rgb(44,11,232);fill-rule:nonzero;"/>
                        </g>
                        <g transform="matrix(22.0396,0,0,22.0396,370.344,71.9903)">
                            <path d="M0.251,0.029C0.191,0.029 0.139,0.008 0.096,-0.033C0.048,-0.078 0.023,-0.139 0.021,-0.214C0.019,-0.286 0.038,-0.35 0.08,-0.407C0.13,-0.473 0.198,-0.506 0.287,-0.506C0.352,-0.506 0.403,-0.48 0.442,-0.428C0.476,-0.381 0.494,-0.323 0.494,-0.254C0.494,-0.178 0.473,-0.114 0.433,-0.061C0.388,-0.001 0.327,0.029 0.251,0.029ZM0.28,-0.377C0.24,-0.378 0.209,-0.36 0.186,-0.323C0.166,-0.292 0.156,-0.256 0.156,-0.214C0.156,-0.175 0.167,-0.145 0.189,-0.125C0.207,-0.108 0.228,-0.1 0.251,-0.1C0.279,-0.1 0.304,-0.109 0.325,-0.128C0.348,-0.151 0.361,-0.181 0.363,-0.22C0.367,-0.325 0.34,-0.377 0.28,-0.377Z" style="fill:rgb(44,11,232);fill-rule:nonzero;"/>
                        </g>
                        <g transform="matrix(22.0396,0,0,22.0396,381.934,71.9903)">
                            <path d="M0.459,-0.352C0.456,-0.302 0.433,-0.277 0.391,-0.277C0.35,-0.277 0.33,-0.299 0.33,-0.341L0.327,-0.39C0.254,-0.378 0.201,-0.341 0.17,-0.277L0.17,-0.032C0.17,-0.013 0.164,0.002 0.151,0.014C0.139,0.027 0.123,0.033 0.103,0.033C0.083,0.033 0.067,0.026 0.056,0.013C0.046,0.001 0.041,-0.014 0.041,-0.032L0.041,-0.352C0.041,-0.362 0.041,-0.377 0.042,-0.397C0.042,-0.417 0.042,-0.432 0.042,-0.442C0.042,-0.46 0.048,-0.475 0.059,-0.488C0.07,-0.5 0.085,-0.506 0.105,-0.506C0.142,-0.506 0.163,-0.487 0.17,-0.45C0.228,-0.493 0.292,-0.515 0.362,-0.515C0.427,-0.515 0.459,-0.471 0.459,-0.385C0.459,-0.368 0.459,-0.357 0.459,-0.352Z" style="fill:rgb(44,11,232);fill-rule:nonzero;"/>
                        </g>
                        <g transform="matrix(22.0396,0,0,22.0396,392.524,71.9903)">
                            <path d="M0.502,-0.291C0.489,-0.215 0.481,-0.134 0.478,-0.049C0.475,0.056 0.457,0.133 0.425,0.18C0.383,0.244 0.307,0.275 0.199,0.275C0.072,0.275 0.009,0.25 0.009,0.2C0.009,0.182 0.014,0.168 0.026,0.157C0.037,0.146 0.052,0.14 0.071,0.14C0.085,0.14 0.106,0.143 0.134,0.148C0.161,0.154 0.185,0.157 0.207,0.157C0.255,0.157 0.291,0.142 0.314,0.112C0.336,0.083 0.349,0.037 0.353,-0.026C0.336,-0.009 0.318,0.004 0.297,0.012C0.276,0.021 0.253,0.025 0.229,0.025C0.164,0.025 0.111,0.004 0.071,-0.038C0.03,-0.08 0.01,-0.134 0.01,-0.2C0.01,-0.289 0.037,-0.36 0.091,-0.415C0.147,-0.472 0.222,-0.5 0.318,-0.5C0.348,-0.5 0.375,-0.496 0.397,-0.489C0.419,-0.481 0.437,-0.47 0.451,-0.455C0.492,-0.45 0.513,-0.425 0.513,-0.381C0.513,-0.36 0.509,-0.329 0.502,-0.291ZM0.313,-0.389C0.258,-0.389 0.215,-0.371 0.185,-0.334C0.157,-0.302 0.144,-0.259 0.144,-0.207C0.144,-0.168 0.151,-0.139 0.166,-0.119C0.18,-0.1 0.202,-0.09 0.231,-0.09C0.258,-0.09 0.285,-0.105 0.312,-0.136C0.337,-0.166 0.352,-0.194 0.355,-0.223C0.362,-0.254 0.369,-0.303 0.377,-0.369C0.366,-0.376 0.355,-0.381 0.344,-0.384C0.333,-0.387 0.323,-0.389 0.313,-0.389Z" style="fill:rgb(44,11,232);fill-rule:nonzero;"/>
                        </g>
                        <g transform="matrix(22.0396,0,0,22.0396,404.222,71.9903)">
                            <path d="M0.296,0.022C0.218,0.022 0.154,0.004 0.105,-0.033C0.05,-0.074 0.023,-0.132 0.023,-0.207C0.023,-0.289 0.045,-0.359 0.088,-0.416C0.136,-0.479 0.201,-0.51 0.283,-0.51C0.339,-0.51 0.386,-0.501 0.424,-0.483C0.473,-0.459 0.498,-0.421 0.498,-0.371C0.498,-0.335 0.478,-0.303 0.438,-0.275C0.419,-0.263 0.383,-0.244 0.328,-0.22L0.163,-0.147C0.179,-0.13 0.198,-0.117 0.22,-0.109C0.242,-0.1 0.267,-0.096 0.296,-0.096C0.34,-0.096 0.376,-0.105 0.407,-0.123C0.434,-0.139 0.455,-0.147 0.472,-0.147C0.506,-0.147 0.522,-0.131 0.522,-0.098C0.522,-0.061 0.495,-0.03 0.441,-0.007C0.395,0.013 0.347,0.022 0.296,0.022ZM0.283,-0.392C0.252,-0.392 0.227,-0.382 0.205,-0.362C0.184,-0.342 0.166,-0.311 0.153,-0.271C0.19,-0.287 0.227,-0.303 0.263,-0.318C0.307,-0.338 0.342,-0.357 0.368,-0.374C0.346,-0.386 0.318,-0.392 0.283,-0.392Z" style="fill:rgb(44,11,232);fill-rule:nonzero;"/>
                        </g>
                        <g transform="matrix(22.0396,0,0,22.0396,416.543,71.9903)">
                            <path d="M0.395,-0.393L0.346,-0.395C0.333,-0.395 0.317,-0.393 0.3,-0.391C0.306,-0.259 0.309,-0.173 0.309,-0.133C0.309,-0.129 0.309,-0.121 0.309,-0.109C0.309,-0.098 0.31,-0.088 0.31,-0.081C0.31,-0.006 0.286,0.031 0.239,0.031C0.221,0.031 0.205,0.026 0.192,0.015C0.178,0.003 0.171,-0.012 0.171,-0.029C0.171,-0.041 0.171,-0.059 0.172,-0.082C0.173,-0.105 0.174,-0.123 0.174,-0.135C0.174,-0.174 0.171,-0.258 0.165,-0.388C0.145,-0.389 0.114,-0.391 0.073,-0.396C0.033,-0.4 0.012,-0.421 0.012,-0.459C0.012,-0.477 0.018,-0.493 0.031,-0.505C0.043,-0.518 0.059,-0.524 0.079,-0.524C0.091,-0.524 0.118,-0.522 0.162,-0.519C0.161,-0.529 0.16,-0.546 0.159,-0.57C0.158,-0.591 0.157,-0.607 0.157,-0.619C0.157,-0.637 0.164,-0.652 0.177,-0.664C0.191,-0.676 0.207,-0.682 0.226,-0.682C0.274,-0.682 0.298,-0.642 0.298,-0.561L0.297,-0.521C0.317,-0.523 0.333,-0.525 0.346,-0.525C0.384,-0.525 0.409,-0.522 0.423,-0.518C0.449,-0.508 0.462,-0.489 0.462,-0.458C0.462,-0.439 0.456,-0.424 0.443,-0.412C0.43,-0.399 0.414,-0.393 0.395,-0.393Z" style="fill:rgb(44,11,232);fill-rule:nonzero;"/>
                        </g>
                        <g transform="matrix(22.0396,0,0,22.0396,426.928,71.9903)">
                            <path d="M0.118,-0.145C0.1,-0.145 0.085,-0.151 0.073,-0.162C0.061,-0.174 0.055,-0.188 0.055,-0.205C0.055,-0.218 0.055,-0.237 0.054,-0.262C0.053,-0.287 0.053,-0.306 0.053,-0.319C0.053,-0.364 0.053,-0.431 0.054,-0.521C0.055,-0.611 0.055,-0.678 0.055,-0.723C0.055,-0.74 0.061,-0.755 0.073,-0.766C0.085,-0.778 0.1,-0.784 0.118,-0.784C0.136,-0.784 0.151,-0.778 0.163,-0.766C0.175,-0.755 0.181,-0.74 0.181,-0.723L0.181,-0.205C0.181,-0.188 0.175,-0.174 0.163,-0.162C0.151,-0.151 0.136,-0.145 0.118,-0.145ZM0.117,0.032C0.097,0.032 0.079,0.022 0.062,0.001C0.047,-0.018 0.039,-0.036 0.039,-0.053C0.039,-0.07 0.046,-0.084 0.059,-0.095C0.072,-0.107 0.088,-0.112 0.104,-0.112C0.124,-0.112 0.142,-0.102 0.159,-0.081C0.174,-0.062 0.182,-0.044 0.182,-0.028C0.182,-0.011 0.175,0.003 0.162,0.015C0.149,0.026 0.134,0.032 0.117,0.032Z" style="fill:rgb(44,11,232);fill-rule:nonzero;"/>
                        </g>
                        <g transform="matrix(22.0396,0,0,22.0396,432.169,71.9903)">
                            <path d="M0.118,-0.145C0.1,-0.145 0.085,-0.151 0.073,-0.162C0.061,-0.174 0.055,-0.188 0.055,-0.205C0.055,-0.218 0.055,-0.237 0.054,-0.262C0.053,-0.287 0.053,-0.306 0.053,-0.319C0.053,-0.364 0.053,-0.431 0.054,-0.521C0.055,-0.611 0.055,-0.678 0.055,-0.723C0.055,-0.74 0.061,-0.755 0.073,-0.766C0.085,-0.778 0.1,-0.784 0.118,-0.784C0.136,-0.784 0.151,-0.778 0.163,-0.766C0.175,-0.755 0.181,-0.74 0.181,-0.723L0.181,-0.205C0.181,-0.188 0.175,-0.174 0.163,-0.162C0.151,-0.151 0.136,-0.145 0.118,-0.145ZM0.117,0.032C0.097,0.032 0.079,0.022 0.062,0.001C0.047,-0.018 0.039,-0.036 0.039,-0.053C0.039,-0.07 0.046,-0.084 0.059,-0.095C0.072,-0.107 0.088,-0.112 0.104,-0.112C0.124,-0.112 0.142,-0.102 0.159,-0.081C0.174,-0.062 0.182,-0.044 0.182,-0.028C0.182,-0.011 0.175,0.003 0.162,0.015C0.149,0.026 0.134,0.032 0.117,0.032Z" style="fill:rgb(44,11,232);fill-rule:nonzero;"/>
                        </g>
                        <g transform="matrix(22.0396,0,0,22.0396,437.41,71.9903)">
                            <path d="M0.118,-0.145C0.1,-0.145 0.085,-0.151 0.073,-0.162C0.061,-0.174 0.055,-0.188 0.055,-0.205C0.055,-0.218 0.055,-0.237 0.054,-0.262C0.053,-0.287 0.053,-0.306 0.053,-0.319C0.053,-0.364 0.053,-0.431 0.054,-0.521C0.055,-0.611 0.055,-0.678 0.055,-0.723C0.055,-0.74 0.061,-0.755 0.073,-0.766C0.085,-0.778 0.1,-0.784 0.118,-0.784C0.136,-0.784 0.151,-0.778 0.163,-0.766C0.175,-0.755 0.181,-0.74 0.181,-0.723L0.181,-0.205C0.181,-0.188 0.175,-0.174 0.163,-0.162C0.151,-0.151 0.136,-0.145 0.118,-0.145ZM0.117,0.032C0.097,0.032 0.079,0.022 0.062,0.001C0.047,-0.018 0.039,-0.036 0.039,-0.053C0.039,-0.07 0.046,-0.084 0.059,-0.095C0.072,-0.107 0.088,-0.112 0.104,-0.112C0.124,-0.112 0.142,-0.102 0.159,-0.081C0.174,-0.062 0.182,-0.044 0.182,-0.028C0.182,-0.011 0.175,0.003 0.162,0.015C0.149,0.026 0.134,0.032 0.117,0.032Z" style="fill:rgb(44,11,232);fill-rule:nonzero;"/>
                        </g>
                    </g>
                    <g transform="matrix(1,0,0,1,0.89766,32.213)">
                        <g transform="matrix(14,0,0,14,293.572,71.9903)">
                            <path d="M0.478,-0.282C0.478,-0.26 0.478,-0.228 0.478,-0.184C0.478,-0.14 0.479,-0.107 0.479,-0.085C0.479,-0.078 0.479,-0.068 0.48,-0.054C0.481,-0.041 0.482,-0.031 0.482,-0.024C0.482,-0.006 0.475,0.009 0.462,0.021C0.449,0.033 0.433,0.039 0.414,0.039C0.387,0.039 0.367,0.027 0.354,0.002C0.313,0.018 0.27,0.025 0.225,0.025C0.179,0.025 0.14,0.016 0.108,-0.004C0.073,-0.026 0.052,-0.059 0.045,-0.102C0.032,-0.183 0.026,-0.256 0.026,-0.32C0.026,-0.363 0.031,-0.411 0.041,-0.465C0.047,-0.502 0.069,-0.521 0.106,-0.521C0.125,-0.521 0.141,-0.515 0.155,-0.503C0.168,-0.491 0.175,-0.476 0.175,-0.458C0.175,-0.443 0.172,-0.421 0.168,-0.39C0.163,-0.36 0.161,-0.336 0.161,-0.32C0.161,-0.274 0.162,-0.234 0.165,-0.2C0.168,-0.166 0.173,-0.137 0.179,-0.115C0.187,-0.111 0.195,-0.108 0.203,-0.106C0.211,-0.104 0.218,-0.104 0.225,-0.104C0.261,-0.104 0.301,-0.109 0.344,-0.119C0.344,-0.144 0.344,-0.173 0.344,-0.205C0.343,-0.243 0.343,-0.27 0.343,-0.287C0.343,-0.353 0.346,-0.411 0.352,-0.459C0.357,-0.498 0.379,-0.518 0.418,-0.518C0.438,-0.518 0.454,-0.512 0.468,-0.5C0.481,-0.487 0.488,-0.472 0.487,-0.454C0.481,-0.33 0.478,-0.273 0.478,-0.282Z" style="fill:rgb(44,11,232);fill-rule:nonzero;"/>
                        </g>
                        <g transform="matrix(14,0,0,14,300.852,71.9903)">
                            <path d="M0.394,-0.357C0.361,-0.357 0.342,-0.371 0.335,-0.398C0.322,-0.4 0.309,-0.401 0.295,-0.401C0.217,-0.401 0.178,-0.391 0.178,-0.369C0.178,-0.356 0.201,-0.339 0.249,-0.318C0.313,-0.288 0.357,-0.265 0.379,-0.249C0.427,-0.214 0.45,-0.176 0.45,-0.133C0.45,-0.077 0.424,-0.034 0.372,-0.005C0.33,0.018 0.278,0.029 0.217,0.029C0.174,0.029 0.134,0.023 0.099,0.009C0.05,-0.009 0.025,-0.036 0.025,-0.071C0.025,-0.104 0.045,-0.12 0.083,-0.12C0.098,-0.12 0.12,-0.115 0.148,-0.106C0.177,-0.097 0.199,-0.092 0.214,-0.092C0.28,-0.092 0.313,-0.105 0.313,-0.132C0.313,-0.148 0.291,-0.167 0.245,-0.187C0.178,-0.217 0.135,-0.238 0.116,-0.251C0.07,-0.283 0.047,-0.322 0.047,-0.369C0.047,-0.434 0.082,-0.478 0.151,-0.501C0.192,-0.514 0.253,-0.521 0.336,-0.521C0.369,-0.521 0.393,-0.517 0.409,-0.508C0.43,-0.497 0.441,-0.476 0.441,-0.445C0.441,-0.387 0.425,-0.357 0.394,-0.357Z" style="fill:rgb(44,11,232);fill-rule:nonzero;"/>
                        </g>
                        <g transform="matrix(14,0,0,14,307.667,71.9903)">
                            <path d="M0.296,0.022C0.218,0.022 0.154,0.004 0.105,-0.033C0.05,-0.074 0.023,-0.132 0.023,-0.207C0.023,-0.289 0.045,-0.359 0.088,-0.416C0.136,-0.479 0.201,-0.51 0.283,-0.51C0.339,-0.51 0.386,-0.501 0.424,-0.483C0.473,-0.459 0.498,-0.421 0.498,-0.371C0.498,-0.335 0.478,-0.303 0.438,-0.275C0.419,-0.263 0.383,-0.244 0.328,-0.22L0.163,-0.147C0.179,-0.13 0.198,-0.117 0.22,-0.109C0.242,-0.1 0.267,-0.096 0.296,-0.096C0.34,-0.096 0.376,-0.105 0.407,-0.123C0.434,-0.139 0.455,-0.147 0.472,-0.147C0.506,-0.147 0.522,-0.131 0.522,-0.098C0.522,-0.061 0.495,-0.03 0.441,-0.007C0.395,0.013 0.347,0.022 0.296,0.022ZM0.283,-0.392C0.252,-0.392 0.227,-0.382 0.205,-0.362C0.184,-0.342 0.166,-0.311 0.153,-0.271C0.19,-0.287 0.227,-0.303 0.263,-0.318C0.307,-0.338 0.342,-0.357 0.368,-0.374C0.346,-0.386 0.318,-0.392 0.283,-0.392Z" style="fill:rgb(44,11,232);fill-rule:nonzero;"/>
                        </g>
                        <g transform="matrix(14,0,0,14,315.494,71.9903)">
                            <path d="M0.459,-0.352C0.456,-0.302 0.433,-0.277 0.391,-0.277C0.35,-0.277 0.33,-0.299 0.33,-0.341L0.327,-0.39C0.254,-0.378 0.201,-0.341 0.17,-0.277L0.17,-0.032C0.17,-0.013 0.164,0.002 0.151,0.014C0.139,0.027 0.123,0.033 0.103,0.033C0.083,0.033 0.067,0.026 0.056,0.013C0.046,0.001 0.041,-0.014 0.041,-0.032L0.041,-0.352C0.041,-0.362 0.041,-0.377 0.042,-0.397C0.042,-0.417 0.042,-0.432 0.042,-0.442C0.042,-0.46 0.048,-0.475 0.059,-0.488C0.07,-0.5 0.085,-0.506 0.105,-0.506C0.142,-0.506 0.163,-0.487 0.17,-0.45C0.228,-0.493 0.292,-0.515 0.362,-0.515C0.427,-0.515 0.459,-0.471 0.459,-0.385C0.459,-0.368 0.459,-0.357 0.459,-0.352Z" style="fill:rgb(44,11,232);fill-rule:nonzero;"/>
                        </g>
                        <g transform="matrix(14,0,0,14,322.221,71.9903)">
                            <path d="M0.435,0.035C0.395,0.035 0.372,0.015 0.368,-0.024C0.363,-0.058 0.359,-0.092 0.354,-0.125C0.349,-0.161 0.347,-0.195 0.347,-0.227C0.347,-0.235 0.347,-0.25 0.348,-0.27C0.35,-0.291 0.35,-0.305 0.35,-0.313C0.35,-0.316 0.35,-0.322 0.351,-0.331C0.352,-0.34 0.352,-0.348 0.352,-0.354C0.352,-0.381 0.345,-0.394 0.331,-0.394C0.301,-0.394 0.272,-0.377 0.243,-0.342C0.214,-0.307 0.192,-0.262 0.175,-0.208C0.175,-0.198 0.173,-0.183 0.171,-0.166C0.169,-0.151 0.168,-0.137 0.168,-0.123C0.168,-0.113 0.169,-0.1 0.171,-0.081C0.173,-0.063 0.174,-0.049 0.174,-0.04C0.174,-0.021 0.168,-0.006 0.155,0.006C0.142,0.018 0.126,0.024 0.106,0.024C0.087,0.024 0.071,0.018 0.058,0.006C0.045,-0.006 0.039,-0.021 0.039,-0.04C0.039,-0.049 0.038,-0.063 0.036,-0.081C0.034,-0.1 0.033,-0.113 0.033,-0.123C0.033,-0.154 0.035,-0.197 0.04,-0.253C0.045,-0.309 0.047,-0.352 0.047,-0.383C0.047,-0.393 0.046,-0.408 0.045,-0.427C0.044,-0.446 0.043,-0.461 0.043,-0.47C0.043,-0.488 0.05,-0.503 0.063,-0.515C0.076,-0.527 0.093,-0.533 0.112,-0.533C0.154,-0.533 0.177,-0.508 0.18,-0.457L0.181,-0.451C0.228,-0.499 0.278,-0.523 0.331,-0.523C0.393,-0.523 0.435,-0.497 0.458,-0.446C0.474,-0.411 0.482,-0.36 0.482,-0.291L0.482,-0.256C0.482,-0.241 0.481,-0.231 0.481,-0.225C0.481,-0.199 0.485,-0.167 0.492,-0.126C0.499,-0.086 0.502,-0.054 0.502,-0.029C0.502,-0.011 0.496,0.005 0.483,0.017C0.47,0.029 0.454,0.035 0.435,0.035Z" style="fill:rgb(44,11,232);fill-rule:nonzero;"/>
                        </g>
                        <g transform="matrix(14,0,0,14,329.549,71.9903)">
                            <path d="M0.471,0.032C0.456,0.032 0.432,0.016 0.4,-0.017C0.37,-0.002 0.344,0.009 0.321,0.016C0.298,0.023 0.279,0.027 0.263,0.027C0.184,0.027 0.125,0.006 0.086,-0.036C0.047,-0.078 0.027,-0.141 0.027,-0.225C0.027,-0.303 0.056,-0.37 0.114,-0.426C0.172,-0.482 0.242,-0.51 0.322,-0.51C0.353,-0.51 0.389,-0.501 0.43,-0.483C0.479,-0.462 0.503,-0.438 0.503,-0.41C0.503,-0.398 0.5,-0.388 0.492,-0.379C0.489,-0.366 0.486,-0.35 0.485,-0.33C0.483,-0.31 0.482,-0.287 0.482,-0.261C0.482,-0.199 0.486,-0.154 0.495,-0.126C0.496,-0.124 0.504,-0.107 0.518,-0.076C0.53,-0.048 0.537,-0.032 0.537,-0.028C0.537,-0.011 0.53,0.004 0.517,0.015C0.504,0.027 0.488,0.032 0.471,0.032ZM0.35,-0.303C0.35,-0.313 0.351,-0.325 0.352,-0.339C0.354,-0.352 0.356,-0.367 0.359,-0.384C0.352,-0.387 0.347,-0.389 0.342,-0.391C0.337,-0.392 0.332,-0.393 0.329,-0.393C0.284,-0.393 0.246,-0.376 0.212,-0.341C0.179,-0.306 0.163,-0.266 0.163,-0.221C0.163,-0.177 0.17,-0.144 0.186,-0.122C0.202,-0.1 0.225,-0.089 0.256,-0.089C0.277,-0.089 0.296,-0.093 0.314,-0.099C0.332,-0.106 0.349,-0.116 0.365,-0.129C0.355,-0.206 0.35,-0.264 0.35,-0.303Z" style="fill:rgb(44,11,232);fill-rule:nonzero;"/>
                        </g>
                        <g transform="matrix(14,0,0,14,337.328,71.9903)">
                            <path d="M0.176,-0.432C0.225,-0.489 0.272,-0.518 0.316,-0.518C0.366,-0.518 0.403,-0.499 0.426,-0.46C0.446,-0.478 0.468,-0.491 0.492,-0.5C0.516,-0.509 0.542,-0.513 0.57,-0.513C0.634,-0.513 0.677,-0.481 0.7,-0.418C0.705,-0.405 0.712,-0.361 0.721,-0.286C0.73,-0.233 0.742,-0.145 0.756,-0.022C0.758,-0.003 0.751,0.012 0.737,0.024C0.723,0.036 0.707,0.042 0.688,0.042C0.651,0.042 0.629,0.023 0.622,-0.014C0.616,-0.047 0.61,-0.095 0.604,-0.156C0.597,-0.223 0.592,-0.27 0.588,-0.298C0.579,-0.357 0.568,-0.386 0.554,-0.386C0.547,-0.386 0.53,-0.378 0.503,-0.363C0.476,-0.348 0.457,-0.335 0.444,-0.325C0.444,-0.288 0.449,-0.234 0.458,-0.165C0.467,-0.093 0.471,-0.04 0.471,-0.004C0.471,0.014 0.465,0.03 0.452,0.042C0.439,0.054 0.423,0.061 0.404,0.061C0.384,0.061 0.368,0.054 0.355,0.042C0.343,0.03 0.336,0.014 0.336,-0.004C0.336,-0.042 0.332,-0.096 0.324,-0.168C0.316,-0.24 0.313,-0.295 0.313,-0.332C0.313,-0.353 0.311,-0.369 0.307,-0.382C0.269,-0.36 0.231,-0.324 0.193,-0.273C0.192,-0.271 0.189,-0.267 0.185,-0.263C0.184,-0.197 0.183,-0.145 0.183,-0.108C0.183,-0.099 0.183,-0.087 0.182,-0.071C0.181,-0.056 0.181,-0.044 0.181,-0.037C0.181,-0.019 0.174,-0.005 0.16,0.005C0.147,0.014 0.131,0.019 0.111,0.019C0.084,0.019 0.065,0.007 0.055,-0.017C0.048,-0.033 0.045,-0.059 0.045,-0.095L0.045,-0.276C0.045,-0.293 0.044,-0.316 0.043,-0.348C0.042,-0.379 0.041,-0.403 0.041,-0.419C0.041,-0.448 0.046,-0.475 0.057,-0.498C0.069,-0.527 0.087,-0.542 0.11,-0.542C0.129,-0.542 0.145,-0.535 0.159,-0.521C0.174,-0.507 0.181,-0.491 0.181,-0.474C0.181,-0.481 0.179,-0.467 0.176,-0.432Z" style="fill:rgb(44,11,232);fill-rule:nonzero;"/>
                        </g>
                        <g transform="matrix(14,0,0,14,348.204,71.9903)">
                            <path d="M0.296,0.022C0.218,0.022 0.154,0.004 0.105,-0.033C0.05,-0.074 0.023,-0.132 0.023,-0.207C0.023,-0.289 0.045,-0.359 0.088,-0.416C0.136,-0.479 0.201,-0.51 0.283,-0.51C0.339,-0.51 0.386,-0.501 0.424,-0.483C0.473,-0.459 0.498,-0.421 0.498,-0.371C0.498,-0.335 0.478,-0.303 0.438,-0.275C0.419,-0.263 0.383,-0.244 0.328,-0.22L0.163,-0.147C0.179,-0.13 0.198,-0.117 0.22,-0.109C0.242,-0.1 0.267,-0.096 0.296,-0.096C0.34,-0.096 0.376,-0.105 0.407,-0.123C0.434,-0.139 0.455,-0.147 0.472,-0.147C0.506,-0.147 0.522,-0.131 0.522,-0.098C0.522,-0.061 0.495,-0.03 0.441,-0.007C0.395,0.013 0.347,0.022 0.296,0.022ZM0.283,-0.392C0.252,-0.392 0.227,-0.382 0.205,-0.362C0.184,-0.342 0.166,-0.311 0.153,-0.271C0.19,-0.287 0.227,-0.303 0.263,-0.318C0.307,-0.338 0.342,-0.357 0.368,-0.374C0.346,-0.386 0.318,-0.392 0.283,-0.392Z" style="fill:rgb(44,11,232);fill-rule:nonzero;"/>
                        </g>
                        <g transform="matrix(14,0,0,14,356.032,71.9903)">
                            <path d="M0.222,-0.391C0.201,-0.391 0.185,-0.397 0.172,-0.409C0.158,-0.421 0.152,-0.436 0.152,-0.455C0.152,-0.458 0.151,-0.464 0.15,-0.471C0.148,-0.479 0.147,-0.484 0.147,-0.488C0.147,-0.507 0.154,-0.522 0.168,-0.533C0.182,-0.545 0.199,-0.551 0.218,-0.551C0.267,-0.551 0.291,-0.519 0.291,-0.455C0.291,-0.436 0.284,-0.421 0.271,-0.409C0.258,-0.397 0.242,-0.391 0.222,-0.391ZM0.229,-0.06C0.179,-0.06 0.154,-0.098 0.154,-0.174C0.154,-0.193 0.161,-0.208 0.176,-0.22C0.19,-0.232 0.206,-0.237 0.225,-0.237C0.275,-0.237 0.299,-0.2 0.299,-0.125C0.299,-0.106 0.293,-0.091 0.279,-0.078C0.266,-0.066 0.249,-0.06 0.229,-0.06Z" style="fill:rgb(44,11,232);fill-rule:nonzero;"/>
                        </g>
                        <g transform="matrix(14,0,0,14,368.172,71.9903)">
                            <path d="M0.395,-0.393L0.346,-0.395C0.333,-0.395 0.317,-0.393 0.3,-0.391C0.306,-0.259 0.309,-0.173 0.309,-0.133C0.309,-0.129 0.309,-0.121 0.309,-0.109C0.309,-0.098 0.31,-0.088 0.31,-0.081C0.31,-0.006 0.286,0.031 0.239,0.031C0.221,0.031 0.205,0.026 0.192,0.015C0.178,0.003 0.171,-0.012 0.171,-0.029C0.171,-0.041 0.171,-0.059 0.172,-0.082C0.173,-0.105 0.174,-0.123 0.174,-0.135C0.174,-0.174 0.171,-0.258 0.165,-0.388C0.145,-0.389 0.114,-0.391 0.073,-0.396C0.033,-0.4 0.012,-0.421 0.012,-0.459C0.012,-0.477 0.018,-0.493 0.031,-0.505C0.043,-0.518 0.059,-0.524 0.079,-0.524C0.091,-0.524 0.118,-0.522 0.162,-0.519C0.161,-0.529 0.16,-0.546 0.159,-0.57C0.158,-0.591 0.157,-0.607 0.157,-0.619C0.157,-0.637 0.164,-0.652 0.177,-0.664C0.191,-0.676 0.207,-0.682 0.226,-0.682C0.274,-0.682 0.298,-0.642 0.298,-0.561L0.297,-0.521C0.317,-0.523 0.333,-0.525 0.346,-0.525C0.384,-0.525 0.409,-0.522 0.423,-0.518C0.449,-0.508 0.462,-0.489 0.462,-0.458C0.462,-0.439 0.456,-0.424 0.443,-0.412C0.43,-0.399 0.414,-0.393 0.395,-0.393Z" style="fill:rgb(44,11,232);fill-rule:nonzero;"/>
                        </g>
                        <g transform="matrix(14,0,0,14,374.769,71.9903)">
                            <path d="M0.471,0.032C0.456,0.032 0.432,0.016 0.4,-0.017C0.37,-0.002 0.344,0.009 0.321,0.016C0.298,0.023 0.279,0.027 0.263,0.027C0.184,0.027 0.125,0.006 0.086,-0.036C0.047,-0.078 0.027,-0.141 0.027,-0.225C0.027,-0.303 0.056,-0.37 0.114,-0.426C0.172,-0.482 0.242,-0.51 0.322,-0.51C0.353,-0.51 0.389,-0.501 0.43,-0.483C0.479,-0.462 0.503,-0.438 0.503,-0.41C0.503,-0.398 0.5,-0.388 0.492,-0.379C0.489,-0.366 0.486,-0.35 0.485,-0.33C0.483,-0.31 0.482,-0.287 0.482,-0.261C0.482,-0.199 0.486,-0.154 0.495,-0.126C0.496,-0.124 0.504,-0.107 0.518,-0.076C0.53,-0.048 0.537,-0.032 0.537,-0.028C0.537,-0.011 0.53,0.004 0.517,0.015C0.504,0.027 0.488,0.032 0.471,0.032ZM0.35,-0.303C0.35,-0.313 0.351,-0.325 0.352,-0.339C0.354,-0.352 0.356,-0.367 0.359,-0.384C0.352,-0.387 0.347,-0.389 0.342,-0.391C0.337,-0.392 0.332,-0.393 0.329,-0.393C0.284,-0.393 0.246,-0.376 0.212,-0.341C0.179,-0.306 0.163,-0.266 0.163,-0.221C0.163,-0.177 0.17,-0.144 0.186,-0.122C0.202,-0.1 0.225,-0.089 0.256,-0.089C0.277,-0.089 0.296,-0.093 0.314,-0.099C0.332,-0.106 0.349,-0.116 0.365,-0.129C0.355,-0.206 0.35,-0.264 0.35,-0.303Z" style="fill:rgb(44,11,232);fill-rule:nonzero;"/>
                        </g>
                        <g transform="matrix(14,0,0,14,382.548,71.9903)">
                            <path d="M0.161,-0.587C0.14,-0.587 0.122,-0.594 0.107,-0.608C0.092,-0.622 0.084,-0.639 0.084,-0.659C0.084,-0.679 0.092,-0.696 0.107,-0.71C0.122,-0.724 0.14,-0.731 0.161,-0.731C0.182,-0.731 0.2,-0.724 0.215,-0.71C0.23,-0.696 0.238,-0.679 0.238,-0.659C0.238,-0.639 0.23,-0.622 0.215,-0.608C0.2,-0.594 0.182,-0.587 0.161,-0.587ZM0.203,-0.229C0.203,-0.21 0.203,-0.181 0.204,-0.14C0.205,-0.099 0.206,-0.069 0.206,-0.05C0.206,-0.031 0.2,-0.016 0.187,-0.004C0.174,0.009 0.158,0.015 0.139,0.015C0.119,0.015 0.103,0.009 0.09,-0.004C0.078,-0.016 0.071,-0.031 0.071,-0.05C0.071,-0.069 0.071,-0.099 0.07,-0.14C0.068,-0.181 0.068,-0.21 0.068,-0.229C0.068,-0.258 0.069,-0.294 0.073,-0.338C0.076,-0.382 0.078,-0.418 0.078,-0.447C0.078,-0.466 0.084,-0.481 0.097,-0.493C0.109,-0.506 0.125,-0.512 0.145,-0.512C0.165,-0.512 0.181,-0.506 0.193,-0.493C0.206,-0.481 0.212,-0.466 0.212,-0.447C0.212,-0.418 0.211,-0.382 0.208,-0.338C0.204,-0.294 0.203,-0.258 0.203,-0.229Z" style="fill:rgb(44,11,232);fill-rule:nonzero;"/>
                        </g>
                        <g transform="matrix(14,0,0,14,386.472,71.9903)">
                            <path d="M0.638,-0.189C0.615,-0.189 0.593,-0.195 0.57,-0.206C0.547,-0.217 0.525,-0.233 0.502,-0.254C0.488,-0.24 0.471,-0.227 0.449,-0.215C0.425,-0.203 0.405,-0.197 0.387,-0.197C0.346,-0.197 0.308,-0.213 0.271,-0.244C0.235,-0.276 0.217,-0.312 0.217,-0.351C0.217,-0.414 0.243,-0.47 0.293,-0.521C0.345,-0.573 0.403,-0.599 0.469,-0.599C0.508,-0.599 0.528,-0.582 0.528,-0.549C0.528,-0.525 0.513,-0.506 0.483,-0.493C0.429,-0.47 0.401,-0.458 0.399,-0.457C0.369,-0.436 0.354,-0.404 0.354,-0.361C0.354,-0.357 0.357,-0.351 0.363,-0.344C0.37,-0.335 0.378,-0.33 0.387,-0.33C0.41,-0.329 0.43,-0.34 0.446,-0.363L0.484,-0.427C0.5,-0.45 0.519,-0.461 0.539,-0.461C0.573,-0.461 0.59,-0.441 0.59,-0.402C0.59,-0.396 0.589,-0.386 0.587,-0.374C0.585,-0.361 0.583,-0.352 0.583,-0.345C0.583,-0.333 0.59,-0.326 0.603,-0.323C0.605,-0.323 0.617,-0.323 0.638,-0.323C0.676,-0.323 0.702,-0.331 0.716,-0.347C0.73,-0.362 0.736,-0.389 0.736,-0.428C0.736,-0.499 0.707,-0.556 0.648,-0.601C0.593,-0.642 0.527,-0.663 0.45,-0.663C0.362,-0.663 0.293,-0.631 0.243,-0.567C0.197,-0.51 0.174,-0.437 0.174,-0.348C0.174,-0.268 0.201,-0.2 0.254,-0.145C0.31,-0.088 0.381,-0.06 0.468,-0.06C0.5,-0.06 0.556,-0.074 0.636,-0.103C0.653,-0.109 0.665,-0.112 0.671,-0.112C0.69,-0.112 0.706,-0.105 0.72,-0.091C0.733,-0.077 0.74,-0.061 0.74,-0.043C0.74,-0.01 0.702,0.018 0.628,0.041C0.568,0.059 0.515,0.068 0.469,0.068C0.349,0.068 0.247,0.029 0.163,-0.049C0.077,-0.129 0.034,-0.228 0.034,-0.348C0.034,-0.472 0.07,-0.576 0.142,-0.66C0.219,-0.751 0.322,-0.796 0.45,-0.796C0.564,-0.796 0.663,-0.763 0.745,-0.697C0.832,-0.626 0.875,-0.537 0.875,-0.428C0.875,-0.354 0.856,-0.296 0.816,-0.254C0.775,-0.211 0.716,-0.189 0.638,-0.189Z" style="fill:rgb(44,11,232);fill-rule:nonzero;"/>
                        </g>
                        <g transform="matrix(14,0,0,14,399.508,71.9903)">
                            <path d="M0.176,-0.432C0.225,-0.489 0.272,-0.518 0.316,-0.518C0.366,-0.518 0.403,-0.499 0.426,-0.46C0.446,-0.478 0.468,-0.491 0.492,-0.5C0.516,-0.509 0.542,-0.513 0.57,-0.513C0.634,-0.513 0.677,-0.481 0.7,-0.418C0.705,-0.405 0.712,-0.361 0.721,-0.286C0.73,-0.233 0.742,-0.145 0.756,-0.022C0.758,-0.003 0.751,0.012 0.737,0.024C0.723,0.036 0.707,0.042 0.688,0.042C0.651,0.042 0.629,0.023 0.622,-0.014C0.616,-0.047 0.61,-0.095 0.604,-0.156C0.597,-0.223 0.592,-0.27 0.588,-0.298C0.579,-0.357 0.568,-0.386 0.554,-0.386C0.547,-0.386 0.53,-0.378 0.503,-0.363C0.476,-0.348 0.457,-0.335 0.444,-0.325C0.444,-0.288 0.449,-0.234 0.458,-0.165C0.467,-0.093 0.471,-0.04 0.471,-0.004C0.471,0.014 0.465,0.03 0.452,0.042C0.439,0.054 0.423,0.061 0.404,0.061C0.384,0.061 0.368,0.054 0.355,0.042C0.343,0.03 0.336,0.014 0.336,-0.004C0.336,-0.042 0.332,-0.096 0.324,-0.168C0.316,-0.24 0.313,-0.295 0.313,-0.332C0.313,-0.353 0.311,-0.369 0.307,-0.382C0.269,-0.36 0.231,-0.324 0.193,-0.273C0.192,-0.271 0.189,-0.267 0.185,-0.263C0.184,-0.197 0.183,-0.145 0.183,-0.108C0.183,-0.099 0.183,-0.087 0.182,-0.071C0.181,-0.056 0.181,-0.044 0.181,-0.037C0.181,-0.019 0.174,-0.005 0.16,0.005C0.147,0.014 0.131,0.019 0.111,0.019C0.084,0.019 0.065,0.007 0.055,-0.017C0.048,-0.033 0.045,-0.059 0.045,-0.095L0.045,-0.276C0.045,-0.293 0.044,-0.316 0.043,-0.348C0.042,-0.379 0.041,-0.403 0.041,-0.419C0.041,-0.448 0.046,-0.475 0.057,-0.498C0.069,-0.527 0.087,-0.542 0.11,-0.542C0.129,-0.542 0.145,-0.535 0.159,-0.521C0.174,-0.507 0.181,-0.491 0.181,-0.474C0.181,-0.481 0.179,-0.467 0.176,-0.432Z" style="fill:rgb(44,11,232);fill-rule:nonzero;"/>
                        </g>
                        <g transform="matrix(14,0,0,14,410.384,71.9903)">
                            <path d="M0.535,-0.413C0.5,-0.339 0.444,-0.223 0.367,-0.064C0.325,0.021 0.293,0.091 0.271,0.147C0.265,0.167 0.254,0.197 0.239,0.237C0.228,0.267 0.207,0.283 0.177,0.283C0.158,0.283 0.142,0.277 0.128,0.265C0.114,0.253 0.107,0.237 0.107,0.219C0.107,0.189 0.141,0.099 0.21,-0.05C0.175,-0.12 0.118,-0.224 0.04,-0.362C0.032,-0.374 0.024,-0.387 0.016,-0.399C0.007,-0.414 0.003,-0.428 0.003,-0.44C0.003,-0.458 0.01,-0.473 0.024,-0.487C0.038,-0.5 0.054,-0.507 0.072,-0.507C0.094,-0.507 0.111,-0.499 0.123,-0.483C0.169,-0.421 0.223,-0.329 0.284,-0.205C0.319,-0.282 0.34,-0.329 0.348,-0.345C0.371,-0.393 0.393,-0.436 0.416,-0.473C0.43,-0.496 0.449,-0.508 0.473,-0.508C0.491,-0.508 0.508,-0.502 0.522,-0.489C0.536,-0.477 0.543,-0.462 0.543,-0.444C0.543,-0.434 0.541,-0.424 0.535,-0.413Z" style="fill:rgb(44,11,232);fill-rule:nonzero;"/>
                        </g>
                        <g transform="matrix(14,0,0,14,418.122,71.9903)">
                            <path d="M0.215,0.051C0.194,0.051 0.175,0.044 0.159,0.031C0.143,0.017 0.135,0.002 0.135,-0.015C0.135,-0.032 0.143,-0.048 0.159,-0.062C0.175,-0.076 0.194,-0.083 0.215,-0.083C0.238,-0.083 0.257,-0.076 0.272,-0.063C0.287,-0.05 0.295,-0.034 0.295,-0.015C0.295,0.002 0.287,0.017 0.271,0.031C0.256,0.044 0.237,0.051 0.215,0.051Z" style="fill:rgb(44,11,232);fill-rule:nonzero;"/>
                        </g>
                        <g transform="matrix(14,0,0,14,424.193,71.9903)">
                            <path d="M0.502,-0.291C0.489,-0.215 0.481,-0.134 0.478,-0.049C0.475,0.056 0.457,0.133 0.425,0.18C0.383,0.244 0.307,0.275 0.199,0.275C0.072,0.275 0.009,0.25 0.009,0.2C0.009,0.182 0.014,0.168 0.026,0.157C0.037,0.146 0.052,0.14 0.071,0.14C0.085,0.14 0.106,0.143 0.134,0.148C0.161,0.154 0.185,0.157 0.207,0.157C0.255,0.157 0.291,0.142 0.314,0.112C0.336,0.083 0.349,0.037 0.353,-0.026C0.336,-0.009 0.318,0.004 0.297,0.012C0.276,0.021 0.253,0.025 0.229,0.025C0.164,0.025 0.111,0.004 0.071,-0.038C0.03,-0.08 0.01,-0.134 0.01,-0.2C0.01,-0.289 0.037,-0.36 0.091,-0.415C0.147,-0.472 0.222,-0.5 0.318,-0.5C0.348,-0.5 0.375,-0.496 0.397,-0.489C0.419,-0.481 0.437,-0.47 0.451,-0.455C0.492,-0.45 0.513,-0.425 0.513,-0.381C0.513,-0.36 0.509,-0.329 0.502,-0.291ZM0.313,-0.389C0.258,-0.389 0.215,-0.371 0.185,-0.334C0.157,-0.302 0.144,-0.259 0.144,-0.207C0.144,-0.168 0.151,-0.139 0.166,-0.119C0.18,-0.1 0.202,-0.09 0.231,-0.09C0.258,-0.09 0.285,-0.105 0.312,-0.136C0.337,-0.166 0.352,-0.194 0.355,-0.223C0.362,-0.254 0.369,-0.303 0.377,-0.369C0.366,-0.376 0.355,-0.381 0.344,-0.384C0.333,-0.387 0.323,-0.389 0.313,-0.389Z" style="fill:rgb(44,11,232);fill-rule:nonzero;"/>
                        </g>
                        <g transform="matrix(14,0,0,14,431.623,71.9903)">
                            <path d="M0.471,0.032C0.456,0.032 0.432,0.016 0.4,-0.017C0.37,-0.002 0.344,0.009 0.321,0.016C0.298,0.023 0.279,0.027 0.263,0.027C0.184,0.027 0.125,0.006 0.086,-0.036C0.047,-0.078 0.027,-0.141 0.027,-0.225C0.027,-0.303 0.056,-0.37 0.114,-0.426C0.172,-0.482 0.242,-0.51 0.322,-0.51C0.353,-0.51 0.389,-0.501 0.43,-0.483C0.479,-0.462 0.503,-0.438 0.503,-0.41C0.503,-0.398 0.5,-0.388 0.492,-0.379C0.489,-0.366 0.486,-0.35 0.485,-0.33C0.483,-0.31 0.482,-0.287 0.482,-0.261C0.482,-0.199 0.486,-0.154 0.495,-0.126C0.496,-0.124 0.504,-0.107 0.518,-0.076C0.53,-0.048 0.537,-0.032 0.537,-0.028C0.537,-0.011 0.53,0.004 0.517,0.015C0.504,0.027 0.488,0.032 0.471,0.032ZM0.35,-0.303C0.35,-0.313 0.351,-0.325 0.352,-0.339C0.354,-0.352 0.356,-0.367 0.359,-0.384C0.352,-0.387 0.347,-0.389 0.342,-0.391C0.337,-0.392 0.332,-0.393 0.329,-0.393C0.284,-0.393 0.246,-0.376 0.212,-0.341C0.179,-0.306 0.163,-0.266 0.163,-0.221C0.163,-0.177 0.17,-0.144 0.186,-0.122C0.202,-0.1 0.225,-0.089 0.256,-0.089C0.277,-0.089 0.296,-0.093 0.314,-0.099C0.332,-0.106 0.349,-0.116 0.365,-0.129C0.355,-0.206 0.35,-0.264 0.35,-0.303Z" style="fill:rgb(44,11,232);fill-rule:nonzero;"/>
                        </g>
                        <g transform="matrix(14,0,0,14,439.403,71.9903)">
                            <path d="M0.459,-0.352C0.456,-0.302 0.433,-0.277 0.391,-0.277C0.35,-0.277 0.33,-0.299 0.33,-0.341L0.327,-0.39C0.254,-0.378 0.201,-0.341 0.17,-0.277L0.17,-0.032C0.17,-0.013 0.164,0.002 0.151,0.014C0.139,0.027 0.123,0.033 0.103,0.033C0.083,0.033 0.067,0.026 0.056,0.013C0.046,0.001 0.041,-0.014 0.041,-0.032L0.041,-0.352C0.041,-0.362 0.041,-0.377 0.042,-0.397C0.042,-0.417 0.042,-0.432 0.042,-0.442C0.042,-0.46 0.048,-0.475 0.059,-0.488C0.07,-0.5 0.085,-0.506 0.105,-0.506C0.142,-0.506 0.163,-0.487 0.17,-0.45C0.228,-0.493 0.292,-0.515 0.362,-0.515C0.427,-0.515 0.459,-0.471 0.459,-0.385C0.459,-0.368 0.459,-0.357 0.459,-0.352Z" style="fill:rgb(44,11,232);fill-rule:nonzero;"/>
                        </g>
                        <g transform="matrix(14,0,0,14,446.129,71.9903)">
                            <path d="M0.471,0.032C0.456,0.032 0.432,0.016 0.4,-0.017C0.37,-0.002 0.344,0.009 0.321,0.016C0.298,0.023 0.279,0.027 0.263,0.027C0.184,0.027 0.125,0.006 0.086,-0.036C0.047,-0.078 0.027,-0.141 0.027,-0.225C0.027,-0.303 0.056,-0.37 0.114,-0.426C0.172,-0.482 0.242,-0.51 0.322,-0.51C0.353,-0.51 0.389,-0.501 0.43,-0.483C0.479,-0.462 0.503,-0.438 0.503,-0.41C0.503,-0.398 0.5,-0.388 0.492,-0.379C0.489,-0.366 0.486,-0.35 0.485,-0.33C0.483,-0.31 0.482,-0.287 0.482,-0.261C0.482,-0.199 0.486,-0.154 0.495,-0.126C0.496,-0.124 0.504,-0.107 0.518,-0.076C0.53,-0.048 0.537,-0.032 0.537,-0.028C0.537,-0.011 0.53,0.004 0.517,0.015C0.504,0.027 0.488,0.032 0.471,0.032ZM0.35,-0.303C0.35,-0.313 0.351,-0.325 0.352,-0.339C0.354,-0.352 0.356,-0.367 0.359,-0.384C0.352,-0.387 0.347,-0.389 0.342,-0.391C0.337,-0.392 0.332,-0.393 0.329,-0.393C0.284,-0.393 0.246,-0.376 0.212,-0.341C0.179,-0.306 0.163,-0.266 0.163,-0.221C0.163,-0.177 0.17,-0.144 0.186,-0.122C0.202,-0.1 0.225,-0.089 0.256,-0.089C0.277,-0.089 0.296,-0.093 0.314,-0.099C0.332,-0.106 0.349,-0.116 0.365,-0.129C0.355,-0.206 0.35,-0.264 0.35,-0.303Z" style="fill:rgb(44,11,232);fill-rule:nonzero;"/>
                        </g>
                        <g transform="matrix(14,0,0,14,453.909,71.9903)">
                            <path d="M0.502,-0.291C0.489,-0.215 0.481,-0.134 0.478,-0.049C0.475,0.056 0.457,0.133 0.425,0.18C0.383,0.244 0.307,0.275 0.199,0.275C0.072,0.275 0.009,0.25 0.009,0.2C0.009,0.182 0.014,0.168 0.026,0.157C0.037,0.146 0.052,0.14 0.071,0.14C0.085,0.14 0.106,0.143 0.134,0.148C0.161,0.154 0.185,0.157 0.207,0.157C0.255,0.157 0.291,0.142 0.314,0.112C0.336,0.083 0.349,0.037 0.353,-0.026C0.336,-0.009 0.318,0.004 0.297,0.012C0.276,0.021 0.253,0.025 0.229,0.025C0.164,0.025 0.111,0.004 0.071,-0.038C0.03,-0.08 0.01,-0.134 0.01,-0.2C0.01,-0.289 0.037,-0.36 0.091,-0.415C0.147,-0.472 0.222,-0.5 0.318,-0.5C0.348,-0.5 0.375,-0.496 0.397,-0.489C0.419,-0.481 0.437,-0.47 0.451,-0.455C0.492,-0.45 0.513,-0.425 0.513,-0.381C0.513,-0.36 0.509,-0.329 0.502,-0.291ZM0.313,-0.389C0.258,-0.389 0.215,-0.371 0.185,-0.334C0.157,-0.302 0.144,-0.259 0.144,-0.207C0.144,-0.168 0.151,-0.139 0.166,-0.119C0.18,-0.1 0.202,-0.09 0.231,-0.09C0.258,-0.09 0.285,-0.105 0.312,-0.136C0.337,-0.166 0.352,-0.194 0.355,-0.223C0.362,-0.254 0.369,-0.303 0.377,-0.369C0.366,-0.376 0.355,-0.381 0.344,-0.384C0.333,-0.387 0.323,-0.389 0.313,-0.389Z" style="fill:rgb(44,11,232);fill-rule:nonzero;"/>
                        </g>
                        <g transform="matrix(14,0,0,14,461.339,71.9903)">
                            <path d="M0.296,0.022C0.218,0.022 0.154,0.004 0.105,-0.033C0.05,-0.074 0.023,-0.132 0.023,-0.207C0.023,-0.289 0.045,-0.359 0.088,-0.416C0.136,-0.479 0.201,-0.51 0.283,-0.51C0.339,-0.51 0.386,-0.501 0.424,-0.483C0.473,-0.459 0.498,-0.421 0.498,-0.371C0.498,-0.335 0.478,-0.303 0.438,-0.275C0.419,-0.263 0.383,-0.244 0.328,-0.22L0.163,-0.147C0.179,-0.13 0.198,-0.117 0.22,-0.109C0.242,-0.1 0.267,-0.096 0.296,-0.096C0.34,-0.096 0.376,-0.105 0.407,-0.123C0.434,-0.139 0.455,-0.147 0.472,-0.147C0.506,-0.147 0.522,-0.131 0.522,-0.098C0.522,-0.061 0.495,-0.03 0.441,-0.007C0.395,0.013 0.347,0.022 0.296,0.022ZM0.283,-0.392C0.252,-0.392 0.227,-0.382 0.205,-0.362C0.184,-0.342 0.166,-0.311 0.153,-0.271C0.19,-0.287 0.227,-0.303 0.263,-0.318C0.307,-0.338 0.342,-0.357 0.368,-0.374C0.346,-0.386 0.318,-0.392 0.283,-0.392Z" style="fill:rgb(44,11,232);fill-rule:nonzero;"/>
                        </g>
                        <g transform="matrix(14,0,0,14,469.166,71.9903)">
                            <path d="M0.215,0.051C0.194,0.051 0.175,0.044 0.159,0.031C0.143,0.017 0.135,0.002 0.135,-0.015C0.135,-0.032 0.143,-0.048 0.159,-0.062C0.175,-0.076 0.194,-0.083 0.215,-0.083C0.238,-0.083 0.257,-0.076 0.272,-0.063C0.287,-0.05 0.295,-0.034 0.295,-0.015C0.295,0.002 0.287,0.017 0.271,0.031C0.256,0.044 0.237,0.051 0.215,0.051Z" style="fill:rgb(44,11,232);fill-rule:nonzero;"/>
                        </g>
                        <g transform="matrix(14,0,0,14,475.237,71.9903)">
                            <path d="M0.274,0.031C0.203,0.031 0.143,0.01 0.094,-0.03C0.043,-0.073 0.018,-0.13 0.018,-0.2C0.018,-0.265 0.041,-0.332 0.086,-0.401C0.139,-0.48 0.199,-0.519 0.268,-0.519C0.302,-0.519 0.341,-0.51 0.387,-0.492C0.442,-0.469 0.469,-0.443 0.469,-0.414C0.469,-0.398 0.464,-0.384 0.453,-0.372C0.441,-0.358 0.426,-0.352 0.407,-0.352C0.393,-0.352 0.376,-0.359 0.357,-0.374C0.337,-0.389 0.307,-0.397 0.268,-0.397C0.243,-0.397 0.216,-0.372 0.187,-0.323C0.159,-0.276 0.145,-0.235 0.145,-0.2C0.145,-0.166 0.157,-0.139 0.182,-0.12C0.205,-0.101 0.236,-0.092 0.274,-0.092C0.296,-0.092 0.323,-0.1 0.354,-0.117C0.386,-0.133 0.406,-0.142 0.415,-0.142C0.432,-0.142 0.447,-0.135 0.46,-0.123C0.472,-0.11 0.479,-0.095 0.479,-0.079C0.479,-0.054 0.451,-0.028 0.396,-0.003C0.346,0.02 0.306,0.031 0.274,0.031Z" style="fill:rgb(44,11,232);fill-rule:nonzero;"/>
                        </g>
                        <g transform="matrix(14,0,0,14,482.428,71.9903)">
                            <path d="M0.251,0.029C0.191,0.029 0.139,0.008 0.096,-0.033C0.048,-0.078 0.023,-0.139 0.021,-0.214C0.019,-0.286 0.038,-0.35 0.08,-0.407C0.13,-0.473 0.198,-0.506 0.287,-0.506C0.352,-0.506 0.403,-0.48 0.442,-0.428C0.476,-0.381 0.494,-0.323 0.494,-0.254C0.494,-0.178 0.473,-0.114 0.433,-0.061C0.388,-0.001 0.327,0.029 0.251,0.029ZM0.28,-0.377C0.24,-0.378 0.209,-0.36 0.186,-0.323C0.166,-0.292 0.156,-0.256 0.156,-0.214C0.156,-0.175 0.167,-0.145 0.189,-0.125C0.207,-0.108 0.228,-0.1 0.251,-0.1C0.279,-0.1 0.304,-0.109 0.325,-0.128C0.348,-0.151 0.361,-0.181 0.363,-0.22C0.367,-0.325 0.34,-0.377 0.28,-0.377Z" style="fill:rgb(44,11,232);fill-rule:nonzero;"/>
                        </g>
                        <g transform="matrix(14,0,0,14,489.79,71.9903)">
                            <path d="M0.176,-0.432C0.225,-0.489 0.272,-0.518 0.316,-0.518C0.366,-0.518 0.403,-0.499 0.426,-0.46C0.446,-0.478 0.468,-0.491 0.492,-0.5C0.516,-0.509 0.542,-0.513 0.57,-0.513C0.634,-0.513 0.677,-0.481 0.7,-0.418C0.705,-0.405 0.712,-0.361 0.721,-0.286C0.73,-0.233 0.742,-0.145 0.756,-0.022C0.758,-0.003 0.751,0.012 0.737,0.024C0.723,0.036 0.707,0.042 0.688,0.042C0.651,0.042 0.629,0.023 0.622,-0.014C0.616,-0.047 0.61,-0.095 0.604,-0.156C0.597,-0.223 0.592,-0.27 0.588,-0.298C0.579,-0.357 0.568,-0.386 0.554,-0.386C0.547,-0.386 0.53,-0.378 0.503,-0.363C0.476,-0.348 0.457,-0.335 0.444,-0.325C0.444,-0.288 0.449,-0.234 0.458,-0.165C0.467,-0.093 0.471,-0.04 0.471,-0.004C0.471,0.014 0.465,0.03 0.452,0.042C0.439,0.054 0.423,0.061 0.404,0.061C0.384,0.061 0.368,0.054 0.355,0.042C0.343,0.03 0.336,0.014 0.336,-0.004C0.336,-0.042 0.332,-0.096 0.324,-0.168C0.316,-0.24 0.313,-0.295 0.313,-0.332C0.313,-0.353 0.311,-0.369 0.307,-0.382C0.269,-0.36 0.231,-0.324 0.193,-0.273C0.192,-0.271 0.189,-0.267 0.185,-0.263C0.184,-0.197 0.183,-0.145 0.183,-0.108C0.183,-0.099 0.183,-0.087 0.182,-0.071C0.181,-0.056 0.181,-0.044 0.181,-0.037C0.181,-0.019 0.174,-0.005 0.16,0.005C0.147,0.014 0.131,0.019 0.111,0.019C0.084,0.019 0.065,0.007 0.055,-0.017C0.048,-0.033 0.045,-0.059 0.045,-0.095L0.045,-0.276C0.045,-0.293 0.044,-0.316 0.043,-0.348C0.042,-0.379 0.041,-0.403 0.041,-0.419C0.041,-0.448 0.046,-0.475 0.057,-0.498C0.069,-0.527 0.087,-0.542 0.11,-0.542C0.129,-0.542 0.145,-0.535 0.159,-0.521C0.174,-0.507 0.181,-0.491 0.181,-0.474C0.181,-0.481 0.179,-0.467 0.176,-0.432Z" style="fill:rgb(44,11,232);fill-rule:nonzero;"/>
                        </g>
                    </g>
                    <g transform="matrix(1,0,0,1,-0.679514,61.4571)">
                        <g transform="matrix(14,0,0,14,293.572,71.9903)">
                            <path d="M0.275,0.029C0.247,0.029 0.218,0.026 0.187,0.019L0.187,0.218C0.187,0.237 0.18,0.253 0.167,0.265C0.155,0.278 0.139,0.284 0.119,0.284C0.1,0.284 0.083,0.278 0.071,0.265C0.058,0.253 0.052,0.237 0.052,0.218C0.052,0.203 0.052,0.142 0.053,0.036C0.053,-0.043 0.053,-0.107 0.053,-0.157C0.052,-0.227 0.049,-0.288 0.046,-0.338C0.041,-0.408 0.039,-0.44 0.039,-0.435C0.039,-0.462 0.045,-0.485 0.057,-0.504C0.071,-0.526 0.09,-0.537 0.113,-0.537C0.132,-0.537 0.147,-0.53 0.159,-0.518C0.172,-0.506 0.178,-0.491 0.178,-0.474L0.177,-0.469C0.199,-0.481 0.221,-0.49 0.243,-0.496C0.265,-0.502 0.287,-0.505 0.309,-0.505C0.384,-0.505 0.439,-0.474 0.473,-0.41C0.499,-0.362 0.512,-0.3 0.512,-0.224C0.512,-0.153 0.491,-0.094 0.451,-0.047C0.407,0.004 0.349,0.029 0.275,0.029ZM0.309,-0.375C0.289,-0.375 0.268,-0.37 0.247,-0.361C0.225,-0.351 0.204,-0.337 0.183,-0.317C0.187,-0.25 0.188,-0.183 0.188,-0.116C0.217,-0.106 0.246,-0.102 0.275,-0.102C0.309,-0.102 0.335,-0.113 0.353,-0.137C0.369,-0.159 0.377,-0.188 0.377,-0.224C0.377,-0.268 0.375,-0.299 0.371,-0.315C0.362,-0.355 0.341,-0.375 0.309,-0.375Z" style="fill:rgb(44,11,232);fill-rule:nonzero;"/>
                        </g>
                        <g transform="matrix(14,0,0,14,301.057,71.9903)">
                            <path d="M0.471,0.032C0.456,0.032 0.432,0.016 0.4,-0.017C0.37,-0.002 0.344,0.009 0.321,0.016C0.298,0.023 0.279,0.027 0.263,0.027C0.184,0.027 0.125,0.006 0.086,-0.036C0.047,-0.078 0.027,-0.141 0.027,-0.225C0.027,-0.303 0.056,-0.37 0.114,-0.426C0.172,-0.482 0.242,-0.51 0.322,-0.51C0.353,-0.51 0.389,-0.501 0.43,-0.483C0.479,-0.462 0.503,-0.438 0.503,-0.41C0.503,-0.398 0.5,-0.388 0.492,-0.379C0.489,-0.366 0.486,-0.35 0.485,-0.33C0.483,-0.31 0.482,-0.287 0.482,-0.261C0.482,-0.199 0.486,-0.154 0.495,-0.126C0.496,-0.124 0.504,-0.107 0.518,-0.076C0.53,-0.048 0.537,-0.032 0.537,-0.028C0.537,-0.011 0.53,0.004 0.517,0.015C0.504,0.027 0.488,0.032 0.471,0.032ZM0.35,-0.303C0.35,-0.313 0.351,-0.325 0.352,-0.339C0.354,-0.352 0.356,-0.367 0.359,-0.384C0.352,-0.387 0.347,-0.389 0.342,-0.391C0.337,-0.392 0.332,-0.393 0.329,-0.393C0.284,-0.393 0.246,-0.376 0.212,-0.341C0.179,-0.306 0.163,-0.266 0.163,-0.221C0.163,-0.177 0.17,-0.144 0.186,-0.122C0.202,-0.1 0.225,-0.089 0.256,-0.089C0.277,-0.089 0.296,-0.093 0.314,-0.099C0.332,-0.106 0.349,-0.116 0.365,-0.129C0.355,-0.206 0.35,-0.264 0.35,-0.303Z" style="fill:rgb(44,11,232);fill-rule:nonzero;"/>
                        </g>
                        <g transform="matrix(14,0,0,14,308.836,71.9903)">
                            <path d="M0.394,-0.357C0.361,-0.357 0.342,-0.371 0.335,-0.398C0.322,-0.4 0.309,-0.401 0.295,-0.401C0.217,-0.401 0.178,-0.391 0.178,-0.369C0.178,-0.356 0.201,-0.339 0.249,-0.318C0.313,-0.288 0.357,-0.265 0.379,-0.249C0.427,-0.214 0.45,-0.176 0.45,-0.133C0.45,-0.077 0.424,-0.034 0.372,-0.005C0.33,0.018 0.278,0.029 0.217,0.029C0.174,0.029 0.134,0.023 0.099,0.009C0.05,-0.009 0.025,-0.036 0.025,-0.071C0.025,-0.104 0.045,-0.12 0.083,-0.12C0.098,-0.12 0.12,-0.115 0.148,-0.106C0.177,-0.097 0.199,-0.092 0.214,-0.092C0.28,-0.092 0.313,-0.105 0.313,-0.132C0.313,-0.148 0.291,-0.167 0.245,-0.187C0.178,-0.217 0.135,-0.238 0.116,-0.251C0.07,-0.283 0.047,-0.322 0.047,-0.369C0.047,-0.434 0.082,-0.478 0.151,-0.501C0.192,-0.514 0.253,-0.521 0.336,-0.521C0.369,-0.521 0.393,-0.517 0.409,-0.508C0.43,-0.497 0.441,-0.476 0.441,-0.445C0.441,-0.387 0.425,-0.357 0.394,-0.357Z" style="fill:rgb(44,11,232);fill-rule:nonzero;"/>
                        </g>
                        <g transform="matrix(14,0,0,14,315.652,71.9903)">
                            <path d="M0.394,-0.357C0.361,-0.357 0.342,-0.371 0.335,-0.398C0.322,-0.4 0.309,-0.401 0.295,-0.401C0.217,-0.401 0.178,-0.391 0.178,-0.369C0.178,-0.356 0.201,-0.339 0.249,-0.318C0.313,-0.288 0.357,-0.265 0.379,-0.249C0.427,-0.214 0.45,-0.176 0.45,-0.133C0.45,-0.077 0.424,-0.034 0.372,-0.005C0.33,0.018 0.278,0.029 0.217,0.029C0.174,0.029 0.134,0.023 0.099,0.009C0.05,-0.009 0.025,-0.036 0.025,-0.071C0.025,-0.104 0.045,-0.12 0.083,-0.12C0.098,-0.12 0.12,-0.115 0.148,-0.106C0.177,-0.097 0.199,-0.092 0.214,-0.092C0.28,-0.092 0.313,-0.105 0.313,-0.132C0.313,-0.148 0.291,-0.167 0.245,-0.187C0.178,-0.217 0.135,-0.238 0.116,-0.251C0.07,-0.283 0.047,-0.322 0.047,-0.369C0.047,-0.434 0.082,-0.478 0.151,-0.501C0.192,-0.514 0.253,-0.521 0.336,-0.521C0.369,-0.521 0.393,-0.517 0.409,-0.508C0.43,-0.497 0.441,-0.476 0.441,-0.445C0.441,-0.387 0.425,-0.357 0.394,-0.357Z" style="fill:rgb(44,11,232);fill-rule:nonzero;"/>
                        </g>
                        <g transform="matrix(14,0,0,14,322.467,71.9903)">
                            <path d="M0.674,-0.43C0.64,-0.303 0.606,-0.187 0.571,-0.083C0.562,-0.053 0.546,-0.023 0.523,0.008C0.508,0.029 0.487,0.04 0.461,0.04C0.42,0.039 0.388,-0.001 0.364,-0.079C0.355,-0.109 0.345,-0.165 0.333,-0.247C0.326,-0.232 0.322,-0.223 0.32,-0.218C0.303,-0.177 0.279,-0.115 0.246,-0.03C0.241,-0.016 0.234,-0.005 0.224,0.003C0.21,0.025 0.19,0.036 0.163,0.037C0.148,0.038 0.132,0.024 0.115,-0.004C0.097,-0.032 0.082,-0.069 0.071,-0.113C0.061,-0.154 0.046,-0.242 0.024,-0.377C0.02,-0.406 0.018,-0.429 0.018,-0.446C0.018,-0.464 0.024,-0.479 0.038,-0.49C0.051,-0.502 0.068,-0.508 0.086,-0.508C0.122,-0.508 0.143,-0.491 0.151,-0.456C0.156,-0.438 0.159,-0.415 0.162,-0.389C0.166,-0.35 0.168,-0.328 0.169,-0.321C0.174,-0.295 0.18,-0.254 0.189,-0.196C0.213,-0.262 0.241,-0.345 0.272,-0.443C0.285,-0.485 0.31,-0.506 0.347,-0.506C0.383,-0.506 0.407,-0.483 0.418,-0.436C0.427,-0.402 0.435,-0.359 0.444,-0.306C0.458,-0.229 0.466,-0.183 0.469,-0.168C0.472,-0.179 0.497,-0.278 0.545,-0.465C0.553,-0.493 0.573,-0.507 0.606,-0.507C0.625,-0.507 0.641,-0.501 0.656,-0.489C0.67,-0.477 0.677,-0.462 0.677,-0.444C0.677,-0.441 0.676,-0.436 0.674,-0.43Z" style="fill:rgb(44,11,232);fill-rule:nonzero;"/>
                        </g>
                        <g transform="matrix(14,0,0,14,332.044,71.9903)">
                            <path d="M0.251,0.029C0.191,0.029 0.139,0.008 0.096,-0.033C0.048,-0.078 0.023,-0.139 0.021,-0.214C0.019,-0.286 0.038,-0.35 0.08,-0.407C0.13,-0.473 0.198,-0.506 0.287,-0.506C0.352,-0.506 0.403,-0.48 0.442,-0.428C0.476,-0.381 0.494,-0.323 0.494,-0.254C0.494,-0.178 0.473,-0.114 0.433,-0.061C0.388,-0.001 0.327,0.029 0.251,0.029ZM0.28,-0.377C0.24,-0.378 0.209,-0.36 0.186,-0.323C0.166,-0.292 0.156,-0.256 0.156,-0.214C0.156,-0.175 0.167,-0.145 0.189,-0.125C0.207,-0.108 0.228,-0.1 0.251,-0.1C0.279,-0.1 0.304,-0.109 0.325,-0.128C0.348,-0.151 0.361,-0.181 0.363,-0.22C0.367,-0.325 0.34,-0.377 0.28,-0.377Z" style="fill:rgb(44,11,232);fill-rule:nonzero;"/>
                        </g>
                        <g transform="matrix(14,0,0,14,339.407,71.9903)">
                            <path d="M0.459,-0.352C0.456,-0.302 0.433,-0.277 0.391,-0.277C0.35,-0.277 0.33,-0.299 0.33,-0.341L0.327,-0.39C0.254,-0.378 0.201,-0.341 0.17,-0.277L0.17,-0.032C0.17,-0.013 0.164,0.002 0.151,0.014C0.139,0.027 0.123,0.033 0.103,0.033C0.083,0.033 0.067,0.026 0.056,0.013C0.046,0.001 0.041,-0.014 0.041,-0.032L0.041,-0.352C0.041,-0.362 0.041,-0.377 0.042,-0.397C0.042,-0.417 0.042,-0.432 0.042,-0.442C0.042,-0.46 0.048,-0.475 0.059,-0.488C0.07,-0.5 0.085,-0.506 0.105,-0.506C0.142,-0.506 0.163,-0.487 0.17,-0.45C0.228,-0.493 0.292,-0.515 0.362,-0.515C0.427,-0.515 0.459,-0.471 0.459,-0.385C0.459,-0.368 0.459,-0.357 0.459,-0.352Z" style="fill:rgb(44,11,232);fill-rule:nonzero;"/>
                        </g>
                        <g transform="matrix(14,0,0,14,346.133,71.9903)">
                            <path d="M0.407,-0.491C0.411,-0.602 0.417,-0.678 0.422,-0.721C0.428,-0.759 0.449,-0.778 0.486,-0.778C0.505,-0.778 0.521,-0.772 0.532,-0.76C0.544,-0.747 0.55,-0.732 0.55,-0.714C0.55,-0.667 0.546,-0.597 0.539,-0.503C0.531,-0.41 0.528,-0.34 0.528,-0.292C0.528,-0.177 0.532,-0.1 0.539,-0.061C0.54,-0.056 0.541,-0.051 0.541,-0.047C0.541,-0.029 0.534,-0.014 0.521,-0.003C0.508,0.009 0.493,0.015 0.476,0.015C0.451,0.015 0.434,0.004 0.422,-0.018C0.4,-0.004 0.377,0.006 0.353,0.012C0.329,0.019 0.305,0.022 0.279,0.022C0.206,0.022 0.146,-0.001 0.098,-0.047C0.049,-0.095 0.024,-0.155 0.024,-0.229C0.024,-0.317 0.049,-0.387 0.098,-0.441C0.148,-0.495 0.212,-0.522 0.292,-0.522C0.316,-0.522 0.338,-0.519 0.357,-0.514C0.377,-0.509 0.393,-0.501 0.407,-0.491ZM0.397,-0.337C0.387,-0.357 0.373,-0.373 0.355,-0.383C0.338,-0.393 0.318,-0.398 0.294,-0.398C0.246,-0.398 0.21,-0.384 0.186,-0.356C0.161,-0.328 0.149,-0.287 0.149,-0.231C0.149,-0.196 0.162,-0.166 0.188,-0.141C0.215,-0.116 0.245,-0.103 0.279,-0.103C0.304,-0.103 0.323,-0.106 0.336,-0.112C0.345,-0.116 0.36,-0.126 0.381,-0.143C0.387,-0.148 0.392,-0.153 0.397,-0.158C0.397,-0.174 0.397,-0.233 0.397,-0.337Z" style="fill:rgb(44,11,232);fill-rule:nonzero;"/>
                        </g>
                        <g transform="matrix(14,0,0,14,354.357,71.9903)">
                            <path d="M0.222,-0.391C0.201,-0.391 0.185,-0.397 0.172,-0.409C0.158,-0.421 0.152,-0.436 0.152,-0.455C0.152,-0.458 0.151,-0.464 0.15,-0.471C0.148,-0.479 0.147,-0.484 0.147,-0.488C0.147,-0.507 0.154,-0.522 0.168,-0.533C0.182,-0.545 0.199,-0.551 0.218,-0.551C0.267,-0.551 0.291,-0.519 0.291,-0.455C0.291,-0.436 0.284,-0.421 0.271,-0.409C0.258,-0.397 0.242,-0.391 0.222,-0.391ZM0.229,-0.06C0.179,-0.06 0.154,-0.098 0.154,-0.174C0.154,-0.193 0.161,-0.208 0.176,-0.22C0.19,-0.232 0.206,-0.237 0.225,-0.237C0.275,-0.237 0.299,-0.2 0.299,-0.125C0.299,-0.106 0.293,-0.091 0.279,-0.078C0.266,-0.066 0.249,-0.06 0.229,-0.06Z" style="fill:rgb(44,11,232);fill-rule:nonzero;"/>
                        </g>
                        <g transform="matrix(14,0,0,14,366.497,71.9903)">
                            <path d="M0.46,0.02C0.435,0.02 0.415,0.008 0.402,-0.017C0.386,-0.047 0.362,-0.082 0.33,-0.122C0.281,-0.185 0.254,-0.218 0.251,-0.222C0.225,-0.203 0.204,-0.188 0.187,-0.178C0.184,-0.133 0.182,-0.09 0.182,-0.048C0.182,-0.029 0.176,-0.014 0.163,-0.001C0.15,0.011 0.134,0.017 0.115,0.017C0.069,0.017 0.046,-0.01 0.046,-0.065C0.046,-0.091 0.048,-0.129 0.052,-0.18C0.055,-0.232 0.057,-0.27 0.057,-0.296C0.057,-0.343 0.058,-0.397 0.059,-0.458C0.061,-0.518 0.062,-0.572 0.062,-0.619C0.062,-0.633 0.061,-0.649 0.059,-0.668C0.058,-0.687 0.057,-0.704 0.057,-0.718C0.057,-0.737 0.063,-0.752 0.076,-0.764C0.089,-0.777 0.105,-0.783 0.125,-0.783C0.144,-0.783 0.16,-0.777 0.173,-0.764C0.186,-0.752 0.192,-0.737 0.192,-0.718C0.192,-0.703 0.193,-0.687 0.194,-0.667C0.196,-0.647 0.197,-0.631 0.197,-0.616C0.197,-0.577 0.196,-0.532 0.194,-0.479C0.192,-0.428 0.191,-0.382 0.191,-0.343C0.236,-0.377 0.303,-0.439 0.394,-0.529C0.408,-0.544 0.424,-0.551 0.442,-0.551C0.461,-0.551 0.477,-0.544 0.491,-0.531C0.505,-0.517 0.512,-0.502 0.512,-0.484C0.512,-0.469 0.505,-0.455 0.493,-0.441C0.454,-0.398 0.409,-0.353 0.355,-0.306L0.457,-0.175C0.506,-0.11 0.531,-0.066 0.531,-0.044C0.531,-0.027 0.524,-0.011 0.509,0.001C0.495,0.014 0.479,0.02 0.46,0.02Z" style="fill:rgb(44,11,232);fill-rule:nonzero;"/>
                        </g>
                        <g transform="matrix(14,0,0,14,374.058,71.9903)">
                            <path d="M0.435,0.035C0.395,0.035 0.372,0.015 0.368,-0.024C0.363,-0.058 0.359,-0.092 0.354,-0.125C0.349,-0.161 0.347,-0.195 0.347,-0.227C0.347,-0.235 0.347,-0.25 0.348,-0.27C0.35,-0.291 0.35,-0.305 0.35,-0.313C0.35,-0.316 0.35,-0.322 0.351,-0.331C0.352,-0.34 0.352,-0.348 0.352,-0.354C0.352,-0.381 0.345,-0.394 0.331,-0.394C0.301,-0.394 0.272,-0.377 0.243,-0.342C0.214,-0.307 0.192,-0.262 0.175,-0.208C0.175,-0.198 0.173,-0.183 0.171,-0.166C0.169,-0.151 0.168,-0.137 0.168,-0.123C0.168,-0.113 0.169,-0.1 0.171,-0.081C0.173,-0.063 0.174,-0.049 0.174,-0.04C0.174,-0.021 0.168,-0.006 0.155,0.006C0.142,0.018 0.126,0.024 0.106,0.024C0.087,0.024 0.071,0.018 0.058,0.006C0.045,-0.006 0.039,-0.021 0.039,-0.04C0.039,-0.049 0.038,-0.063 0.036,-0.081C0.034,-0.1 0.033,-0.113 0.033,-0.123C0.033,-0.154 0.035,-0.197 0.04,-0.253C0.045,-0.309 0.047,-0.352 0.047,-0.383C0.047,-0.393 0.046,-0.408 0.045,-0.427C0.044,-0.446 0.043,-0.461 0.043,-0.47C0.043,-0.488 0.05,-0.503 0.063,-0.515C0.076,-0.527 0.093,-0.533 0.112,-0.533C0.154,-0.533 0.177,-0.508 0.18,-0.457L0.181,-0.451C0.228,-0.499 0.278,-0.523 0.331,-0.523C0.393,-0.523 0.435,-0.497 0.458,-0.446C0.474,-0.411 0.482,-0.36 0.482,-0.291L0.482,-0.256C0.482,-0.241 0.481,-0.231 0.481,-0.225C0.481,-0.199 0.485,-0.167 0.492,-0.126C0.499,-0.086 0.502,-0.054 0.502,-0.029C0.502,-0.011 0.496,0.005 0.483,0.017C0.47,0.029 0.454,0.035 0.435,0.035Z" style="fill:rgb(44,11,232);fill-rule:nonzero;"/>
                        </g>
                        <g transform="matrix(14,0,0,14,381.386,71.9903)">
                            <path d="M0.251,0.029C0.191,0.029 0.139,0.008 0.096,-0.033C0.048,-0.078 0.023,-0.139 0.021,-0.214C0.019,-0.286 0.038,-0.35 0.08,-0.407C0.13,-0.473 0.198,-0.506 0.287,-0.506C0.352,-0.506 0.403,-0.48 0.442,-0.428C0.476,-0.381 0.494,-0.323 0.494,-0.254C0.494,-0.178 0.473,-0.114 0.433,-0.061C0.388,-0.001 0.327,0.029 0.251,0.029ZM0.28,-0.377C0.24,-0.378 0.209,-0.36 0.186,-0.323C0.166,-0.292 0.156,-0.256 0.156,-0.214C0.156,-0.175 0.167,-0.145 0.189,-0.125C0.207,-0.108 0.228,-0.1 0.251,-0.1C0.279,-0.1 0.304,-0.109 0.325,-0.128C0.348,-0.151 0.361,-0.181 0.363,-0.22C0.367,-0.325 0.34,-0.377 0.28,-0.377Z" style="fill:rgb(44,11,232);fill-rule:nonzero;"/>
                        </g>
                        <g transform="matrix(14,0,0,14,388.748,71.9903)">
                            <path d="M0.674,-0.43C0.64,-0.303 0.606,-0.187 0.571,-0.083C0.562,-0.053 0.546,-0.023 0.523,0.008C0.508,0.029 0.487,0.04 0.461,0.04C0.42,0.039 0.388,-0.001 0.364,-0.079C0.355,-0.109 0.345,-0.165 0.333,-0.247C0.326,-0.232 0.322,-0.223 0.32,-0.218C0.303,-0.177 0.279,-0.115 0.246,-0.03C0.241,-0.016 0.234,-0.005 0.224,0.003C0.21,0.025 0.19,0.036 0.163,0.037C0.148,0.038 0.132,0.024 0.115,-0.004C0.097,-0.032 0.082,-0.069 0.071,-0.113C0.061,-0.154 0.046,-0.242 0.024,-0.377C0.02,-0.406 0.018,-0.429 0.018,-0.446C0.018,-0.464 0.024,-0.479 0.038,-0.49C0.051,-0.502 0.068,-0.508 0.086,-0.508C0.122,-0.508 0.143,-0.491 0.151,-0.456C0.156,-0.438 0.159,-0.415 0.162,-0.389C0.166,-0.35 0.168,-0.328 0.169,-0.321C0.174,-0.295 0.18,-0.254 0.189,-0.196C0.213,-0.262 0.241,-0.345 0.272,-0.443C0.285,-0.485 0.31,-0.506 0.347,-0.506C0.383,-0.506 0.407,-0.483 0.418,-0.436C0.427,-0.402 0.435,-0.359 0.444,-0.306C0.458,-0.229 0.466,-0.183 0.469,-0.168C0.472,-0.179 0.497,-0.278 0.545,-0.465C0.553,-0.493 0.573,-0.507 0.606,-0.507C0.625,-0.507 0.641,-0.501 0.656,-0.489C0.67,-0.477 0.677,-0.462 0.677,-0.444C0.677,-0.441 0.676,-0.436 0.674,-0.43Z" style="fill:rgb(44,11,232);fill-rule:nonzero;"/>
                        </g>
                        <g transform="matrix(14,0,0,14,398.325,71.9903)">
                            <path d="M0.2,-0.072C0.2,-0.01 0.178,0.021 0.133,0.021C0.113,0.021 0.097,0.015 0.084,0.002C0.072,-0.01 0.065,-0.026 0.065,-0.045L0.065,-0.721C0.065,-0.74 0.072,-0.755 0.086,-0.767C0.099,-0.778 0.115,-0.784 0.134,-0.784C0.153,-0.784 0.169,-0.778 0.182,-0.766C0.194,-0.755 0.2,-0.74 0.2,-0.721L0.2,-0.072Z" style="fill:rgb(44,11,232);fill-rule:nonzero;"/>
                        </g>
                        <g transform="matrix(14,0,0,14,402.16,71.9903)">
                            <path d="M0.296,0.022C0.218,0.022 0.154,0.004 0.105,-0.033C0.05,-0.074 0.023,-0.132 0.023,-0.207C0.023,-0.289 0.045,-0.359 0.088,-0.416C0.136,-0.479 0.201,-0.51 0.283,-0.51C0.339,-0.51 0.386,-0.501 0.424,-0.483C0.473,-0.459 0.498,-0.421 0.498,-0.371C0.498,-0.335 0.478,-0.303 0.438,-0.275C0.419,-0.263 0.383,-0.244 0.328,-0.22L0.163,-0.147C0.179,-0.13 0.198,-0.117 0.22,-0.109C0.242,-0.1 0.267,-0.096 0.296,-0.096C0.34,-0.096 0.376,-0.105 0.407,-0.123C0.434,-0.139 0.455,-0.147 0.472,-0.147C0.506,-0.147 0.522,-0.131 0.522,-0.098C0.522,-0.061 0.495,-0.03 0.441,-0.007C0.395,0.013 0.347,0.022 0.296,0.022ZM0.283,-0.392C0.252,-0.392 0.227,-0.382 0.205,-0.362C0.184,-0.342 0.166,-0.311 0.153,-0.271C0.19,-0.287 0.227,-0.303 0.263,-0.318C0.307,-0.338 0.342,-0.357 0.368,-0.374C0.346,-0.386 0.318,-0.392 0.283,-0.392Z" style="fill:rgb(44,11,232);fill-rule:nonzero;"/>
                        </g>
                        <g transform="matrix(14,0,0,14,409.988,71.9903)">
                            <path d="M0.407,-0.491C0.411,-0.602 0.417,-0.678 0.422,-0.721C0.428,-0.759 0.449,-0.778 0.486,-0.778C0.505,-0.778 0.521,-0.772 0.532,-0.76C0.544,-0.747 0.55,-0.732 0.55,-0.714C0.55,-0.667 0.546,-0.597 0.539,-0.503C0.531,-0.41 0.528,-0.34 0.528,-0.292C0.528,-0.177 0.532,-0.1 0.539,-0.061C0.54,-0.056 0.541,-0.051 0.541,-0.047C0.541,-0.029 0.534,-0.014 0.521,-0.003C0.508,0.009 0.493,0.015 0.476,0.015C0.451,0.015 0.434,0.004 0.422,-0.018C0.4,-0.004 0.377,0.006 0.353,0.012C0.329,0.019 0.305,0.022 0.279,0.022C0.206,0.022 0.146,-0.001 0.098,-0.047C0.049,-0.095 0.024,-0.155 0.024,-0.229C0.024,-0.317 0.049,-0.387 0.098,-0.441C0.148,-0.495 0.212,-0.522 0.292,-0.522C0.316,-0.522 0.338,-0.519 0.357,-0.514C0.377,-0.509 0.393,-0.501 0.407,-0.491ZM0.397,-0.337C0.387,-0.357 0.373,-0.373 0.355,-0.383C0.338,-0.393 0.318,-0.398 0.294,-0.398C0.246,-0.398 0.21,-0.384 0.186,-0.356C0.161,-0.328 0.149,-0.287 0.149,-0.231C0.149,-0.196 0.162,-0.166 0.188,-0.141C0.215,-0.116 0.245,-0.103 0.279,-0.103C0.304,-0.103 0.323,-0.106 0.336,-0.112C0.345,-0.116 0.36,-0.126 0.381,-0.143C0.387,-0.148 0.392,-0.153 0.397,-0.158C0.397,-0.174 0.397,-0.233 0.397,-0.337Z" style="fill:rgb(44,11,232);fill-rule:nonzero;"/>
                        </g>
                        <g transform="matrix(14,0,0,14,418.211,71.9903)">
                            <path d="M0.502,-0.291C0.489,-0.215 0.481,-0.134 0.478,-0.049C0.475,0.056 0.457,0.133 0.425,0.18C0.383,0.244 0.307,0.275 0.199,0.275C0.072,0.275 0.009,0.25 0.009,0.2C0.009,0.182 0.014,0.168 0.026,0.157C0.037,0.146 0.052,0.14 0.071,0.14C0.085,0.14 0.106,0.143 0.134,0.148C0.161,0.154 0.185,0.157 0.207,0.157C0.255,0.157 0.291,0.142 0.314,0.112C0.336,0.083 0.349,0.037 0.353,-0.026C0.336,-0.009 0.318,0.004 0.297,0.012C0.276,0.021 0.253,0.025 0.229,0.025C0.164,0.025 0.111,0.004 0.071,-0.038C0.03,-0.08 0.01,-0.134 0.01,-0.2C0.01,-0.289 0.037,-0.36 0.091,-0.415C0.147,-0.472 0.222,-0.5 0.318,-0.5C0.348,-0.5 0.375,-0.496 0.397,-0.489C0.419,-0.481 0.437,-0.47 0.451,-0.455C0.492,-0.45 0.513,-0.425 0.513,-0.381C0.513,-0.36 0.509,-0.329 0.502,-0.291ZM0.313,-0.389C0.258,-0.389 0.215,-0.371 0.185,-0.334C0.157,-0.302 0.144,-0.259 0.144,-0.207C0.144,-0.168 0.151,-0.139 0.166,-0.119C0.18,-0.1 0.202,-0.09 0.231,-0.09C0.258,-0.09 0.285,-0.105 0.312,-0.136C0.337,-0.166 0.352,-0.194 0.355,-0.223C0.362,-0.254 0.369,-0.303 0.377,-0.369C0.366,-0.376 0.355,-0.381 0.344,-0.384C0.333,-0.387 0.323,-0.389 0.313,-0.389Z" style="fill:rgb(44,11,232);fill-rule:nonzero;"/>
                        </g>
                        <g transform="matrix(14,0,0,14,425.642,71.9903)">
                            <path d="M0.296,0.022C0.218,0.022 0.154,0.004 0.105,-0.033C0.05,-0.074 0.023,-0.132 0.023,-0.207C0.023,-0.289 0.045,-0.359 0.088,-0.416C0.136,-0.479 0.201,-0.51 0.283,-0.51C0.339,-0.51 0.386,-0.501 0.424,-0.483C0.473,-0.459 0.498,-0.421 0.498,-0.371C0.498,-0.335 0.478,-0.303 0.438,-0.275C0.419,-0.263 0.383,-0.244 0.328,-0.22L0.163,-0.147C0.179,-0.13 0.198,-0.117 0.22,-0.109C0.242,-0.1 0.267,-0.096 0.296,-0.096C0.34,-0.096 0.376,-0.105 0.407,-0.123C0.434,-0.139 0.455,-0.147 0.472,-0.147C0.506,-0.147 0.522,-0.131 0.522,-0.098C0.522,-0.061 0.495,-0.03 0.441,-0.007C0.395,0.013 0.347,0.022 0.296,0.022ZM0.283,-0.392C0.252,-0.392 0.227,-0.382 0.205,-0.362C0.184,-0.342 0.166,-0.311 0.153,-0.271C0.19,-0.287 0.227,-0.303 0.263,-0.318C0.307,-0.338 0.342,-0.357 0.368,-0.374C0.346,-0.386 0.318,-0.392 0.283,-0.392Z" style="fill:rgb(44,11,232);fill-rule:nonzero;"/>
                        </g>
                    </g>
                </g>
            </g>
        </g>
    </g>
</svg>
